<svg xmlns="http://www.w3.org/2000/svg" width="176" height="161.459" viewBox="0 0 176 161.459">
  <g id="لوگو" transform="translate(-755 14)">
    <g id="Group_2" data-name="Group 2" transform="translate(754.76 96.301)">
      <g id="Group_1" data-name="Group 1" transform="translate(0.24 0.24)">
        <path id="Path_3" data-name="Path 3" d="M604.984,41.331q-.31.534-.62,1.068a4.29,4.29,0,0,1-2.306,1.876,17.092,17.092,0,0,0-4.529,2.439c-.4.313-.749.678-1.122,1.019l.043.109a3.858,3.858,0,0,0,.492-.037,14.517,14.517,0,0,1,3.709-.33,3.853,3.853,0,0,1,.968.191.705.705,0,0,1,.488,1.008,5.318,5.318,0,0,1-.787,1.251,7.981,7.981,0,0,1-3.744,2.349,16.086,16.086,0,0,0-2.105.982,4.005,4.005,0,0,0-.536.4,5.68,5.68,0,0,0,.748.631c.812.474,1.017.929.6,1.931a4.689,4.689,0,0,1-.715,1.12.653.653,0,0,1-1.015.1,1,1,0,0,0-1.362.04c-.511.421-.984.889-1.463,1.348a5.6,5.6,0,0,1-1.767,1.351,3.078,3.078,0,0,1-3.1-.47.351.351,0,0,0-.5.006,11.094,11.094,0,0,0-3.051,3.577,14.544,14.544,0,0,0-1.616,3.993,7.5,7.5,0,0,0,.25,4.851,5.266,5.266,0,0,0,3.422,3A9.284,9.284,0,0,0,591.9,74.6a14.545,14.545,0,0,0,5.4-3.812,27.99,27.99,0,0,0,1.937-2.852c.1-.154.221-.3.333-.447l.111.044a.822.822,0,0,1-.005.3c-.274.648-.532,1.306-.849,1.934a27.577,27.577,0,0,1-3.525,5.415,15.715,15.715,0,0,1-4.985,4.118,8.015,8.015,0,0,1-2.956.89.539.539,0,0,0-.158.068h-1.809c-.387-.089-.778-.163-1.161-.269a5.835,5.835,0,0,1-4.131-4.033,10.941,10.941,0,0,1-.44-4.678A20.086,20.086,0,0,1,584.247,60.4c.551-.677,1.119-1.34,1.652-2.03a2.444,2.444,0,0,0,.376-.775.817.817,0,0,0-.825-1.092,5.884,5.884,0,0,0-.969.179l-.344.07-.1-.068a4.736,4.736,0,0,1,.263-.827,3.717,3.717,0,0,1,3.28-2.121,3.263,3.263,0,0,1,1.763.425,1.428,1.428,0,0,1,.74,1.945,4.869,4.869,0,0,1-.588,1.044,3.934,3.934,0,0,0-.315.527c-.129.33-.02.471.325.475a2.2,2.2,0,0,0,1.3-.456,6.954,6.954,0,0,0,2.292-2.662,7.654,7.654,0,0,1,3.59-3.687c.908-.43,1.82-.852,2.721-1.3a2.262,2.262,0,0,0,.442-.387,1.863,1.863,0,0,0-.582-.278,10.408,10.408,0,0,0-4.136.532,2.411,2.411,0,0,1-.508.056,1.73,1.73,0,0,1,.079-.523,13.348,13.348,0,0,1,2.478-3.527,14.682,14.682,0,0,1,3.291-2.6.793.793,0,0,0,.112-.1c-.228-.117-.434-.23-.646-.328a.37.37,0,0,1-.2-.562c.464-.819.949-1.628,1.432-2.436.222-.37.591-.354.944-.3a5.258,5.258,0,0,1,2.307.857,4.39,4.39,0,0,1,.562.56Z" transform="translate(-428.983 -29.335)" fill="#fff"/>
        <path id="Path_4" data-name="Path 4" d="M.24,73.438c.065-.393.14-.785.194-1.18a16.537,16.537,0,0,1,1.359-4.636c.322-.706.713-1.38,1.086-2.061a1.807,1.807,0,0,1,.309-.331L3.3,65.3a2.389,2.389,0,0,1-.126.439A18.746,18.746,0,0,0,1.5,70.4a8.776,8.776,0,0,0-.135,2.942,3.824,3.824,0,0,0,2.146,2.851,7.789,7.789,0,0,0,3.316.95,9.579,9.579,0,0,0,6.32-1.708,10.352,10.352,0,0,0,3.518-4.389,9.934,9.934,0,0,0,.7-5.06,6.565,6.565,0,0,1,.236-2.373c.306-1.063.653-2.115.988-3.169a1.433,1.433,0,0,1,.154-.269l.089.015a1.763,1.763,0,0,1,.043.277,51.362,51.362,0,0,1-.3,6.318,25.521,25.521,0,0,1-1.13,5.277,17.541,17.541,0,0,1-3.933,6.606,8.786,8.786,0,0,1-5.231,2.7,8.2,8.2,0,0,1-3.838-.288,5.751,5.751,0,0,1-3.683-3.86,19.228,19.228,0,0,1-.454-2.151,1.523,1.523,0,0,0-.071-.2Z" transform="translate(-0.24 -44.574)" fill="#fff"/>
        <path id="Path_5" data-name="Path 5" d="M323.047.24c.283.159.579.3.845.481a8.192,8.192,0,0,1,1.081.828,1.63,1.63,0,0,1,.343,2.022,4.314,4.314,0,0,1-1.422,1.619.5.5,0,0,1-.671-.012c-.663-.5-1.349-.963-2.016-1.455-.334-.246-.333-.31-.1-.664q.909-1.41,1.82-2.818Z" transform="translate(-237.574 -0.24)" fill="#fff"/>
        <path id="Path_6" data-name="Path 6" d="M146.192,58.207a3.7,3.7,0,0,1-.133.391,34.473,34.473,0,0,0-2.037,5.338,32.755,32.755,0,0,0-.874,4,10.963,10.963,0,0,0,.026,2.7,3.064,3.064,0,0,0,2.268,2.59,7.575,7.575,0,0,0,5.442-.177,8.159,8.159,0,0,0,4.689-4.475.564.564,0,0,0-.116-.673,2.585,2.585,0,0,0-1.221-.64,8.887,8.887,0,0,1-1.444-.556,2.288,2.288,0,0,1-1.141-2.841,18.342,18.342,0,0,1,3.648-7.148,10.451,10.451,0,0,1,4.07-3.155,5.007,5.007,0,0,1,1.074-.261c.337-.057.519.137.591.457a2.526,2.526,0,0,1-.256,1.658,4.448,4.448,0,0,1-1.46,1.753c-.23.163-.491.426-.768,0-.053-.082-.316-.074-.465-.038a5.1,5.1,0,0,0-2.112,1.146,11.929,11.929,0,0,0-2.623,3.019c-.321.55-.259.841.29,1.153a3.182,3.182,0,0,0,.89.345,2.552,2.552,0,0,1,2.126,2.427,11.852,11.852,0,0,1-.511,3.93,16.4,16.4,0,0,1-2.571,5.588,7.8,7.8,0,0,1-5.042,3.15,6.062,6.062,0,0,1-3.633-.276,4.838,4.838,0,0,1-2.689-3.32,12.335,12.335,0,0,1-.322-4.635,23.863,23.863,0,0,1,1.174-5.171,30.346,30.346,0,0,1,2.515-5.743,5.8,5.8,0,0,1,.468-.617Z" transform="translate(-105.007 -39.48)" fill="#fff"/>
        <path id="Path_7" data-name="Path 7" d="M313.309,55.936l-.7,7.041.121.035c.087-.108.18-.212.261-.324a30.615,30.615,0,0,1,4.237-4.558q5.068-4.716,10.059-9.514c.948-.911,1.771-1.954,2.651-2.936.061-.068.124-.136.186-.2l.08.027a5.5,5.5,0,0,1-.179.611,11.5,11.5,0,0,1-2.655,3.876c-1.924,1.852-3.8,3.759-5.7,5.631-1.935,1.9-3.884,3.789-5.826,5.682-.086.084-.165.173-.275.29a7.9,7.9,0,0,1,1.021.154,2.784,2.784,0,0,1,1.946,2.525,9.434,9.434,0,0,1-.51,3.641,10.892,10.892,0,0,1-1.606,3.518,3.67,3.67,0,0,1-1.737,1.414,2.5,2.5,0,0,1-2.7-.709,12.1,12.1,0,0,1-.959-1.2c-.124.2-.254.432-.4.65a3.339,3.339,0,0,1-2.007,1.471,2.032,2.032,0,0,1-2.29-.966,2.273,2.273,0,0,1-.29-.674c-.062-.23.045-.357.311-.377a11.657,11.657,0,0,0,1.633-.185,2.983,2.983,0,0,0,2.218-2.03,13.169,13.169,0,0,0,.828-4.066q.062-1.636.154-3.271a9.527,9.527,0,0,1,.868-3.132c.283-.679.613-1.338.932-2a4.409,4.409,0,0,1,.29-.457Zm1.174,13a3.227,3.227,0,0,0,2.656-1.258c.4-.518.4-.8-.057-1.276a2.853,2.853,0,0,0-3.934-.215,1.378,1.378,0,0,0-.041,2.35A1.983,1.983,0,0,0,314.483,68.934Z" transform="translate(-226.529 -33.7)" fill="#fff"/>
        <path id="Path_8" data-name="Path 8" d="M206.341,78.8c.225-.171.442-.355.678-.512,1.14-.757,2.312-1.469,3.422-2.267a15.053,15.053,0,0,0,3.607-3.927c1.131-1.678,2.227-3.381,3.334-5.076a20.243,20.243,0,0,1,5.2-5.492c.05-.036.1-.074.147-.115a.264.264,0,0,0,.037-.065c-.046-.036-.092-.076-.141-.109a1.5,1.5,0,0,1-.59-1.956A5.614,5.614,0,0,1,223.3,57.5c.606-.636,1.128-1.352,1.709-2.013a8.727,8.727,0,0,1,4.231-2.835,1.747,1.747,0,0,1,1.489.2,1.089,1.089,0,0,0,1.564-.3c.045-.057.089-.115.131-.174.356-.5.355-.5.951-.34a.711.711,0,0,0,.71-.218,5.61,5.61,0,0,0,.514-.623.419.419,0,0,1,.559-.186.5.5,0,0,0,.62-.132c.336-.367.684-.724,1.013-1.1a1.409,1.409,0,0,0,.347-1.038,8.886,8.886,0,0,1-.051-.964,3.006,3.006,0,0,1,.165-1.025c.359-.823.782-1.618,1.218-2.5a1.287,1.287,0,0,1,.111.269,12.063,12.063,0,0,1-.75,5.654,7.193,7.193,0,0,1-2.336,2.906,4.093,4.093,0,0,1-.522.269c-.488.273-.958.582-1.462.82-.4.187-.837.281-1.251.432-.3.109-.582.267-.885.364a12.35,12.35,0,0,1-1.842.521,2.917,2.917,0,0,1-1.216-.162,1.9,1.9,0,0,0-1.987.405,3.536,3.536,0,0,0,1.267.7c.521.2,1.055.372,1.562.6a1.571,1.571,0,0,1,1.122,2.045,4.305,4.305,0,0,1-1.03,2.23,1.5,1.5,0,0,1-1.359.556,4.213,4.213,0,0,0-2.632.671,22.992,22.992,0,0,0-5.411,4.007,22.71,22.71,0,0,0-2.576,3.352c-1.041,1.526-2.09,3.053-3.239,4.5a13.379,13.379,0,0,1-5.729,4c-.509.2-1.032.367-1.554.534a1.264,1.264,0,0,1-.369.005Zm18.732-18.488c.367-.028.756.011.967-.377a1.814,1.814,0,0,0,.055-1.756.964.964,0,0,0-.366-.365,1.814,1.814,0,0,0-2.578,1.039.876.876,0,0,0,.724,1.292C224.27,60.223,224.673,60.258,225.073,60.312Zm1.354.016c.694.075,1.314.162,1.937.2a1.066,1.066,0,0,0,1.053-.64.672.672,0,0,0-.01-.569,2.049,2.049,0,0,0-1.642-.917.666.666,0,0,0-.51.279C226.963,59.183,226.73,59.714,226.427,60.328Z" transform="translate(-152.764 -32.785)" fill="#fff"/>
        <path id="Path_9" data-name="Path 9" d="M503.333,74.207a1.625,1.625,0,0,1-.57-2.455,3.58,3.58,0,0,1,.676-.962,12.078,12.078,0,0,0,2.08-2.686,9.1,9.1,0,0,1,4.074-3.6,4.424,4.424,0,0,1,.8-.242,1.053,1.053,0,0,1,1.184.4,1.013,1.013,0,0,0,1.409.249,4.367,4.367,0,0,0,1.35-1.483c.061-.093.127-.182.2-.286.081.056.143.092.2.137.329.271.439.283.777.025a4.786,4.786,0,0,0,1.245-1.726c.147-.285.257-.59.41-.871.059-.108.191-.175.29-.262a1.122,1.122,0,0,1,.1.363,7.736,7.736,0,0,1-.649,2.356,6.58,6.58,0,0,1-2.729,3.339,7.6,7.6,0,0,1-.911.372,1.465,1.465,0,0,0-.272.139,3.072,3.072,0,0,1-3.51.132,1.278,1.278,0,0,0-1.246-.031,4.167,4.167,0,0,0-1.424,1.135c-.12.141-.1.248.052.325.515.261,1.028.528,1.554.765.443.2.912.342,1.354.542a1.563,1.563,0,0,1,1.07,1.96,4.47,4.47,0,0,1-.982,2.219,1.366,1.366,0,0,1-1.173.607,5.678,5.678,0,0,0-3.59,1.085,20.144,20.144,0,0,0-5.445,4.459c-.876,1.074-1.6,2.273-2.409,3.4-.878,1.223-1.726,2.471-2.679,3.634A13.115,13.115,0,0,1,489.388,91c-.685.288-1.4.516-2.1.761a1.272,1.272,0,0,1-.342.023l-.057-.12c.2-.161.394-.337.608-.48,1.231-.827,2.5-1.6,3.693-2.478a16.042,16.042,0,0,0,3.686-4.155c1.033-1.531,2.02-3.093,3.026-4.642a20.26,20.26,0,0,1,5.211-5.523C503.181,74.336,503.242,74.281,503.333,74.207Zm3.512-2.372a1.222,1.222,0,0,0-.88-1.321,1.863,1.863,0,0,0-2.277,1.229.816.816,0,0,0,.64,1.206,7.117,7.117,0,0,0,1.508.163c.578.01.782-.185.926-.758C506.8,72.186,506.818,72.009,506.844,71.836Zm.129,1.327c.646.09,1.2.178,1.749.239a1.247,1.247,0,0,0,1.147-.5.607.607,0,0,0-.005-.891,2.521,2.521,0,0,0-1.243-.732.658.658,0,0,0-.825.257C507.518,72.042,507.274,72.565,506.974,73.162Z" transform="translate(-360.384 -44.781)" fill="#fff"/>
        <path id="Path_10" data-name="Path 10" d="M367.466,94.836a2.51,2.51,0,0,1-.131.424,18.03,18.03,0,0,0-1.661,4.6,8.4,8.4,0,0,0-.129,3.123,3.593,3.593,0,0,0,1.472,2.3,7.162,7.162,0,0,0,3.439,1.322,9.51,9.51,0,0,0,4.88-.6,10.077,10.077,0,0,0,6.189-10.5,6.979,6.979,0,0,1,.259-2.528c.272-.987.6-1.957.916-2.933a2.673,2.673,0,0,1,.172-.353l.1,0a2.1,2.1,0,0,1,.054.384c-.078,1.96-.092,3.926-.263,5.879a22.167,22.167,0,0,1-1.54,6.637,17.466,17.466,0,0,1-3.591,5.636,8.83,8.83,0,0,1-4.881,2.621,8.238,8.238,0,0,1-4.178-.256,5.768,5.768,0,0,1-3.547-3.525,9.645,9.645,0,0,1-.511-4.805,18,18,0,0,1,2.254-6.765,5.55,5.55,0,0,1,.328-.529,1.43,1.43,0,0,1,.254-.22Z" transform="translate(-269.754 -66.41)" fill="#fff"/>
        <path id="Path_11" data-name="Path 11" d="M209.452,63.442c-.031.3-.053.611-.094.915-.282,2.055-.618,4.1-.836,6.166-.153,1.443-.172,2.9-.2,4.357a3.141,3.141,0,0,0,.508,1.709,2.76,2.76,0,0,0,1.8,1.069c.256.071.523.1.8.15-.006-.063,0-.091-.011-.1-.7-.48-.792-.78-.477-1.576a4.992,4.992,0,0,1,1.289-1.85l.265-.247-.381-.181a1.926,1.926,0,0,1,.154-.308c.629-.838,1.254-1.68,1.9-2.5.236-.3.314-.274.571.025a4.868,4.868,0,0,0,2.067,1.282c.647.248,1.309.466,1.937.755a1.593,1.593,0,0,1,.951,2.213,3.972,3.972,0,0,1-1.626,2.142,1.875,1.875,0,0,1-1.011.335,4.456,4.456,0,0,0-3.824,1.955,4.911,4.911,0,0,1-1.746,1.478,3.815,3.815,0,0,1-2.329.37,2.6,2.6,0,0,1-1.887-1.892,7.319,7.319,0,0,1-.344-3.2c.1-1.461.217-2.922.36-4.38.109-1.115.265-2.225.413-3.336a12.708,12.708,0,0,1,.349-2.208c.337-1.051.82-2.056,1.243-3.08.014-.035.053-.06.081-.09Zm3.789,12.8a2.4,2.4,0,0,0,1.967-1.011.59.59,0,0,0-.134-.858,2.1,2.1,0,0,0-2.955.59.689.689,0,0,0,.345,1.074A5.529,5.529,0,0,0,213.241,76.247Zm3.723.406.014-.038c.226-.023.455-.031.678-.071.316-.056.625-.165.705-.521a.831.831,0,0,0-.377-.924,7.841,7.841,0,0,0-1.176-.542.351.351,0,0,0-.315.042,7.5,7.5,0,0,0-.819,1.005.561.561,0,0,0,.3.823A7.791,7.791,0,0,0,216.964,76.653Z" transform="translate(-153.17 -46.971)" fill="#fff"/>
        <path id="Path_12" data-name="Path 12" d="M96.311,153.961q.618-.871,1.236-1.741c.258-.363.526-.721.774-1.092.13-.194.257-.244.461-.109.543.359,1.123.671,1.632,1.072a1.5,1.5,0,0,1,.409,1.864,4.489,4.489,0,0,1-1.681,2,.5.5,0,0,1-.655-.039c-.721-.542-1.458-1.061-2.225-1.616-.087.23-.146.422-.232.6a4.858,4.858,0,0,1-1.582,1.811.517.517,0,0,1-.681-.008c-.69-.515-1.393-1.012-2.1-1.507-.182-.128-.222-.254-.091-.439.686-.964,1.365-1.934,2.06-2.891a.354.354,0,0,1,.326-.1c.547.315,1.095.634,1.61,1a1.514,1.514,0,0,1,.66,1.183Z" transform="translate(-67.777 -111.713)" fill="#fff"/>
        <path id="Path_13" data-name="Path 13" d="M67.525,112.494c-.3,0-.621.037-.746-.31s.1-.59.348-.766c.54-.384,1.1-.745,1.658-1.1q1-.631,2.017-1.232a6.218,6.218,0,0,0,2.5-2.74,15.3,15.3,0,0,1,1.013-1.854,5.527,5.527,0,0,1,2.26-1.712c.359-.184.726-.356,1.1-.507a1.852,1.852,0,0,0,1.09-1.122,2.472,2.472,0,0,1,.312-.6c.064-.087.227-.1.345-.147.033.1.107.21.091.3a4.845,4.845,0,0,1-.217.963c-.28.724-.6,1.434-.9,2.148a2.5,2.5,0,0,1-1.3,1.318c-.536.249-1.05.546-1.6.768a3.232,3.232,0,0,0-1.779,1.816c-.264.608-.519,1.219-.774,1.831a4.056,4.056,0,0,1-2.625,2.389A12.36,12.36,0,0,1,67.525,112.494Z" transform="translate(-49.456 -74.328)" fill="#fff"/>
        <path id="Path_14" data-name="Path 14" d="M501.69,107.776a8.154,8.154,0,0,1-2.076,5.23,3.891,3.891,0,0,1-1.327.891c-.869.38-1.779.667-2.672.991a.418.418,0,0,1-.179.042,1.893,1.893,0,0,1-.282-.077c.039-.089.054-.209.122-.263.477-.383.967-.75,1.447-1.129a15.791,15.791,0,0,0,2.415-2.24,1.3,1.3,0,0,0,.164-1.608c-.344-.575-.765-1.1-1.164-1.645-.147-.2-.349-.363-.481-.571a.578.578,0,0,1-.074-.446c.437-1.119.9-2.228,1.352-3.34.008-.019.019-.037.029-.055.215-.424.382-.46.67-.09.452.581.894,1.171,1.3,1.785A4.139,4.139,0,0,1,501.69,107.776Z" transform="translate(-366.499 -76.405)" fill="#fff"/>
        <path id="Path_15" data-name="Path 15" d="M445.462,85.728a3.354,3.354,0,0,1,.079-.383,14.89,14.89,0,0,0,.676-3.6c.129-1.823.2-3.65.329-5.473a15.332,15.332,0,0,1,2.133-6.915,1.064,1.064,0,0,1,.371-.368c-.009.1-.013.207-.028.309-.216,1.454-.475,2.9-.64,4.364-.175,1.546-.243,3.1-.391,4.654a17.976,17.976,0,0,1-1.482,6c-.188.4-.436.775-.658,1.161-.071.123-.145.245-.218.367Z" transform="translate(-329.724 -51.095)" fill="#fff"/>
        <path id="Path_16" data-name="Path 16" d="M483.262,87.36a2.522,2.522,0,0,1,.063-.4,16.791,16.791,0,0,0,.722-4c.128-1.73.206-3.463.306-5.194a14.427,14.427,0,0,1,1.187-4.961c.289-.663.655-1.292.994-1.933a1.919,1.919,0,0,1,.223-.282l.087.028c-.049.3-.1.59-.147.886-.188,1.3-.41,2.6-.547,3.909-.183,1.735-.252,3.482-.455,5.214a14.944,14.944,0,0,1-1.9,6.221,6.457,6.457,0,0,1-.421.551Z" transform="translate(-357.698 -52.28)" fill="#fff"/>
        <path id="Path_17" data-name="Path 17" d="M80.143,59.119c-.076.4-.169.807-.224,1.215-.192,1.429-.4,2.857-.547,4.29-.192,1.806-.277,3.625-.519,5.424A13.316,13.316,0,0,1,77.125,75.3c-.128.21-.293.4-.44.6l-.1-.054a1.871,1.871,0,0,1,.046-.381,15.981,15.981,0,0,0,.713-3.908c.134-1.854.187-3.715.329-5.569a14.379,14.379,0,0,1,1.216-4.8c.262-.585.577-1.147.877-1.715a3.608,3.608,0,0,1,.279-.394Z" transform="translate(-56.736 -43.759)" fill="#fff"/>
        <path id="Path_18" data-name="Path 18" d="M123.727,65.7c-.1.526-.214,1.05-.29,1.579-.149,1.036-.3,2.072-.406,3.114-.189,1.931-.287,3.872-.522,5.8a14.4,14.4,0,0,1-1.71,5.543c-.151.261-.346.5-.521.744l-.134-.059c.082-.33.159-.66.245-.989A21,21,0,0,0,121,77.378c.1-1.6.129-3.2.258-4.79a14.887,14.887,0,0,1,2.12-6.6,3.651,3.651,0,0,1,.255-.332Z" transform="translate(-88.973 -48.629)" fill="#fff"/>
        <path id="Path_19" data-name="Path 19" d="M451.822,106.961a2.5,2.5,0,0,1,.031.466,29.632,29.632,0,0,1-1.666,6.992,4.763,4.763,0,0,1-2.283,2.568,8.493,8.493,0,0,1-3.01,1.114,1.1,1.1,0,0,1-.4-.007c-.406-.1-.514-.441-.2-.714.516-.449,1.064-.861,1.607-1.276a15.391,15.391,0,0,0,3.383-3.286,12.228,12.228,0,0,0,1.418-3.1c.269-.772.5-1.556.758-2.332a3.567,3.567,0,0,1,.224-.454Z" transform="translate(-328.725 -79.16)" fill="#fff"/>
        <path id="Path_20" data-name="Path 20" d="M298.264,22.625a3.961,3.961,0,0,1-.43,1.025,11.827,11.827,0,0,1-1.308,1.4.531.531,0,0,1-.776.008c-.657-.506-1.337-.983-2.02-1.454-.211-.146-.25-.277-.1-.482q1.017-1.433,2.029-2.87a.241.241,0,0,1,.37-.085c.493.3,1,.584,1.479.912A1.741,1.741,0,0,1,298.264,22.625Z" transform="translate(-217.294 -14.943)" fill="#fff"/>
        <path id="Path_21" data-name="Path 21" d="M279.877,24.7a2.414,2.414,0,0,1-.572,1.483,13.238,13.238,0,0,1-1.093,1.145.539.539,0,0,1-.759.016q-1.03-.726-2.086-1.415c-.183-.12-.249-.223-.118-.419q.985-1.476,1.962-2.956c.088-.133.19-.215.361-.114.534.315,1.089.6,1.6.942A1.475,1.475,0,0,1,279.877,24.7Z" transform="translate(-203.708 -16.625)" fill="#fff"/>
        <path id="Path_22" data-name="Path 22" d="M564.535,27.208a2.136,2.136,0,0,1-.466,1.36,14.443,14.443,0,0,1-1.177,1.279.537.537,0,0,1-.777.033c-.683-.49-1.382-.958-2.085-1.418-.207-.135-.232-.255-.1-.452q.96-1.437,1.909-2.882a.3.3,0,0,1,.484-.114c.521.32,1.067.6,1.569.947A1.413,1.413,0,0,1,564.535,27.208Z" transform="translate(-414.375 -18.507)" fill="#fff"/>
        <path id="Path_23" data-name="Path 23" d="M582.887,25.038a3.034,3.034,0,0,1-.941,1.891,7.694,7.694,0,0,1-.837.741.522.522,0,0,1-.706-.011c-.682-.506-1.374-1-2.069-1.487-.182-.128-.227-.255-.1-.439.684-.964,1.364-1.931,2.057-2.889.054-.074.238-.146.294-.111.622.386,1.251.768,1.837,1.206A1.317,1.317,0,0,1,582.887,25.038Z" transform="translate(-427.929 -16.871)" fill="#fff"/>
        <path id="Path_24" data-name="Path 24" d="M286.764,9.675a3.956,3.956,0,0,0-1.92-1.59c-.447-.2-.506-.376-.249-.8.578-.947,1.173-1.883,1.761-2.823a.373.373,0,0,1,.523-.19,5.078,5.078,0,0,1,1.7,1.282,1.6,1.6,0,0,1,.181,1.961A6.723,6.723,0,0,1,286.764,9.675Z" transform="translate(-210.563 -3.19)" fill="#fff"/>
        <path id="Path_25" data-name="Path 25" d="M571.413,12.215a3.979,3.979,0,0,0-1.979-1.618c-.374-.165-.436-.363-.218-.719C569.8,8.913,570.409,7.958,571,7a.392.392,0,0,1,.581-.159,5.1,5.1,0,0,1,1.664,1.283,1.565,1.565,0,0,1,.2,1.851A6.648,6.648,0,0,1,571.413,12.215Z" transform="translate(-421.215 -5.071)" fill="#fff"/>
        <path id="Path_26" data-name="Path 26" d="M397.254,107.91a3.065,3.065,0,0,1-1,2.044,3.216,3.216,0,0,1-.7.562.618.618,0,0,1-.534.006c-.715-.476-1.408-.985-2.1-1.492-.313-.229-.321-.317-.112-.642.544-.845,1.095-1.685,1.63-2.535.147-.233.288-.293.545-.161a4.719,4.719,0,0,1,1.922,1.429A4.039,4.039,0,0,1,397.254,107.91Z" transform="translate(-290.654 -78.19)" fill="#fff"/>
        <path id="Path_27" data-name="Path 27" d="M33.187,78.415a2.517,2.517,0,0,1-.673,1.651,9.858,9.858,0,0,1-.979.907.436.436,0,0,1-.574.023c-.674-.484-1.353-.961-2.021-1.452-.4-.292-.4-.35-.139-.756.54-.837,1.088-1.668,1.62-2.51a.308.308,0,0,1,.475-.136,5.614,5.614,0,0,1,1.791,1.212A1.708,1.708,0,0,1,33.187,78.415Z" transform="translate(-21.244 -56.339)" fill="#fff"/>
        <path id="Path_28" data-name="Path 28" d="M309.543,89.871c-.1.524-.218,1.045-.3,1.572-.1.657-.184,1.317-.232,1.979-.1,1.41-.117,2.827-.27,4.23a14.728,14.728,0,0,1-1.667,5.625,6.139,6.139,0,0,1-.364.527l-.085-.029a2.065,2.065,0,0,1,.05-.407,13.378,13.378,0,0,0,.541-3.149c.119-1.543.156-3.093.266-4.638a11.048,11.048,0,0,1,.845-3.365c.3-.737.667-1.447,1.008-2.167a1.668,1.668,0,0,1,.134-.2Z" transform="translate(-226.982 -66.52)" fill="#fff"/>
        <path id="Path_29" data-name="Path 29" d="M659.379,106.987a2.383,2.383,0,0,1-.556,1.544,12.3,12.3,0,0,1-1.061,1.043.493.493,0,0,1-.7,0c-.647-.486-1.32-.936-1.974-1.412-.375-.273-.378-.355-.129-.736.556-.85,1.105-1.705,1.67-2.549.057-.085.237-.179.307-.148a4.549,4.549,0,0,1,2.139,1.54A3.456,3.456,0,0,1,659.379,106.987Z" transform="translate(-484.637 -77.526)" fill="#fff"/>
      </g>
    </g>
    <g id="Group_3" data-name="Group 3" transform="translate(793 -14)">
      <rect id="Rectangle_1" data-name="Rectangle 1" width="15.904" height="15.904" transform="translate(50 38.754) rotate(45)" fill="#fff"/>
      <rect id="Rectangle_2" data-name="Rectangle 2" width="15.904" height="15.904" transform="translate(42.048 42.048)" fill="#fff"/>
      <path id="Path_37" data-name="Path 37" d="M16.12,1125.917a21.663,21.663,0,0,1-.74-13.169,25.091,25.091,0,0,0-15.374,7.034,24,24,0,0,0,5.879,15.778,31.245,31.245,0,0,1,10.235-9.643Z" transform="translate(-0.006 -1090.492)" fill="#fff"/>
      <path id="Path_38" data-name="Path 38" d="M15.733,2752.061a21.662,21.662,0,0,1-9.836-8.789A25.092,25.092,0,0,0,0,2759.117a24,24,0,0,0,15.314,7,31.245,31.245,0,0,1,.419-14.056Z" transform="translate(0 -2688.407)" fill="#fff"/>
      <path id="Path_39" data-name="Path 39" d="M1125.917,4194.3a21.666,21.666,0,0,1-13.169.74,25.086,25.086,0,0,0,7.034,15.374,24,24,0,0,0,15.778-5.879,31.243,31.243,0,0,1-9.643-10.234Z" transform="translate(-1090.492 -4110.411)" fill="#fff"/>
      <path id="Path_40" data-name="Path 40" d="M2752.061,4213.368a21.663,21.663,0,0,1-8.789,9.835,25.089,25.089,0,0,0,15.845,5.9,24,24,0,0,0,7-15.314,31.271,31.271,0,0,1-14.056-.418Z" transform="translate(-2688.407 -4129.101)" fill="#fff"/>
      <path id="Path_41" data-name="Path 41" d="M4194.3,2756.266a21.667,21.667,0,0,1,.74,13.17,25.09,25.09,0,0,0,15.374-7.035,24,24,0,0,0-5.879-15.778,31.256,31.256,0,0,1-10.234,9.643Z" transform="translate(-4110.411 -2691.691)" fill="#fff"/>
      <path id="Path_42" data-name="Path 42" d="M4213.368,1128.539a21.666,21.666,0,0,1,9.835,8.789,25.091,25.091,0,0,0,5.9-15.845,24,24,0,0,0-15.314-7,31.27,31.27,0,0,1-.418,14.056Z" transform="translate(-4129.101 -1092.193)" fill="#fff"/>
      <path id="Path_43" data-name="Path 43" d="M2756.266,16.12a21.664,21.664,0,0,1,13.17-.74A25.095,25.095,0,0,0,2762.4.006a24,24,0,0,0-15.778,5.879,31.258,31.258,0,0,1,9.643,10.235Z" transform="translate(-2691.691 -0.006)" fill="#fff"/>
      <path id="Path_44" data-name="Path 44" d="M1128.539,15.733a21.665,21.665,0,0,1,8.789-9.836A25.094,25.094,0,0,0,1121.483,0a24,24,0,0,0-7,15.314,31.245,31.245,0,0,1,14.056.419Z" transform="translate(-1092.193)" fill="#fff"/>
      <path id="Path_45" data-name="Path 45" d="M2131.152,372.493a8.853,8.853,0,0,1,2.721,4.15c1.278,4.332-1.486,7.987-1.814,8.406l3.1,3.1a14.29,14.29,0,0,0,3.664-10.492c-.627-7.531-7.4-11.1-7.814-11.306a13.95,13.95,0,0,0-6.2,18.661c.268.539.838,1.6,3.716,4.713a92.223,92.223,0,0,0,6.735,6.586l6.183-.085c-2.283-2.517-4.2-4.429-5.555-5.739-1.64-1.58-3.225-3.216-4.848-4.813a11.968,11.968,0,0,1-1.675-1.793,9.124,9.124,0,0,1-1.394-6.263A8.457,8.457,0,0,1,2131.152,372.493Z" transform="translate(-2080.926 -359.028)" fill="#fff"/>
      <path id="Path_46" data-name="Path 46" d="M968.446,960.561a8.858,8.858,0,0,1,4.859,1.011c3.967,2.159,4.6,6.7,4.661,7.226h4.39a14.292,14.292,0,0,0-4.828-10.01c-5.768-4.881-13.084-2.612-13.52-2.469a13.949,13.949,0,0,0,8.814,17.577c.571.192,1.721.535,5.96.705a92.337,92.337,0,0,0,9.419-.106l4.312-4.432c-3.394-.166-6.1-.165-7.986-.13-2.277.042-4.554.006-6.831.025a11.969,11.969,0,0,1-2.453-.084,9.129,9.129,0,0,1-5.415-3.443A8.456,8.456,0,0,1,968.446,960.561Z" transform="translate(-944.119 -936.555)" fill="#fff"/>
      <path id="Path_47" data-name="Path 47" d="M372.493,1984.043a8.864,8.864,0,0,1,4.15-2.721c4.332-1.278,7.987,1.487,8.406,1.814l3.1-3.1a14.29,14.29,0,0,0-10.492-3.664c-7.531.627-11.1,7.4-11.306,7.814a13.948,13.948,0,0,0,18.661,6.2c.539-.268,1.6-.839,4.713-3.716a92.283,92.283,0,0,0,6.586-6.735q-.043-3.092-.085-6.183c-2.517,2.283-4.429,4.2-5.739,5.555-1.58,1.64-3.216,3.225-4.813,4.848a11.968,11.968,0,0,1-1.793,1.675,9.13,9.13,0,0,1-6.263,1.394A8.454,8.454,0,0,1,372.493,1984.043Z" transform="translate(-359.028 -1934.27)" fill="#fff"/>
      <path id="Path_48" data-name="Path 48" d="M960.561,2604.437a8.859,8.859,0,0,1,1.011-4.858c2.159-3.967,6.7-4.6,7.226-4.661v-4.391a14.3,14.3,0,0,0-10.01,4.829c-4.881,5.769-2.612,13.084-2.469,13.52a13.949,13.949,0,0,0,17.577-8.814c.192-.57.535-1.721.705-5.959a92.349,92.349,0,0,0-.106-9.42l-4.432-4.312c-.166,3.395-.165,6.1-.13,7.987.042,2.276.006,4.554.025,6.831a11.973,11.973,0,0,1-.084,2.453,9.126,9.126,0,0,1-3.443,5.414A8.449,8.449,0,0,1,960.561,2604.437Z" transform="translate(-936.555 -2528.764)" fill="#fff"/>
      <path id="Path_49" data-name="Path 49" d="M1984.043,3159.469a8.866,8.866,0,0,1-2.721-4.15c-1.278-4.332,1.487-7.988,1.814-8.406l-3.1-3.1a14.29,14.29,0,0,0-3.664,10.492c.627,7.531,7.4,11.1,7.814,11.306a13.948,13.948,0,0,0,6.2-18.661c-.268-.54-.839-1.6-3.716-4.713a92.389,92.389,0,0,0-6.735-6.585l-6.183.085c2.283,2.517,4.2,4.429,5.555,5.739,1.64,1.58,3.225,3.216,4.848,4.813a11.972,11.972,0,0,1,1.675,1.793,9.13,9.13,0,0,1,1.394,6.263A8.455,8.455,0,0,1,1984.043,3159.469Z" transform="translate(-1934.27 -3072.933)" fill="#fff"/>
      <path id="Path_50" data-name="Path 50" d="M2604.437,3108.158a8.86,8.86,0,0,1-4.858-1.011c-3.967-2.159-4.6-6.7-4.661-7.227h-4.391a14.3,14.3,0,0,0,4.829,10.01c5.769,4.881,13.084,2.613,13.52,2.469a13.949,13.949,0,0,0-8.814-17.577c-.57-.193-1.721-.535-5.959-.706a92.435,92.435,0,0,0-9.42.106l-4.312,4.432c3.395.166,6.1.165,7.987.13,2.276-.042,4.554-.006,6.831-.024a11.961,11.961,0,0,1,2.453.084,9.125,9.125,0,0,1,5.414,3.442A8.451,8.451,0,0,1,2604.437,3108.158Z" transform="translate(-2528.764 -3032.165)" fill="#fff"/>
      <path id="Path_51" data-name="Path 51" d="M3159.469,2131.152a8.855,8.855,0,0,1-4.15,2.721c-4.332,1.278-7.988-1.486-8.406-1.814l-3.1,3.1a14.29,14.29,0,0,0,10.492,3.664c7.531-.627,11.1-7.4,11.306-7.814a13.949,13.949,0,0,0-18.661-6.2c-.54.268-1.6.838-4.713,3.716a92.329,92.329,0,0,0-6.585,6.735q.043,3.092.085,6.183c2.517-2.283,4.429-4.2,5.739-5.555,1.58-1.64,3.216-3.225,4.813-4.848a11.972,11.972,0,0,1,1.793-1.675,9.123,9.123,0,0,1,6.263-1.394A8.458,8.458,0,0,1,3159.469,2131.152Z" transform="translate(-3072.933 -2080.926)" fill="#fff"/>
      <path id="Path_52" data-name="Path 52" d="M3108.158,968.446a8.859,8.859,0,0,1-1.011,4.859c-2.159,3.967-6.7,4.6-7.227,4.661v4.39a14.293,14.293,0,0,0,10.01-4.828c4.881-5.768,2.613-13.084,2.469-13.52a13.949,13.949,0,0,0-17.577,8.814c-.193.571-.535,1.721-.706,5.96a92.424,92.424,0,0,0,.106,9.419l4.432,4.312c.166-3.394.165-6.1.13-7.986-.042-2.277-.006-4.554-.024-6.831a11.957,11.957,0,0,1,.084-2.453,9.128,9.128,0,0,1,3.442-5.415A8.458,8.458,0,0,1,3108.158,968.446Z" transform="translate(-3032.165 -944.119)" fill="#fff"/>
    </g>
  </g>
</svg>
