<svg xmlns="http://www.w3.org/2000/svg" width="229" height="60" viewBox="0 0 229 60">
  <g id="لوگو_جدید" data-name="لوگو جدید" transform="translate(-1029 -17)">
    <g id="Group_3545" data-name="Group 3545" transform="translate(4785.22 2061.171)">
      <path id="Path_19650" data-name="Path 19650" d="M2118-1967.311c-.1-.014-.208-.034-.313-.041a5.283,5.283,0,0,1-4.047-2.1,5.655,5.655,0,0,1-.948-2.09,8.668,8.668,0,0,1-.029-3.945,20.406,20.406,0,0,1,2.833-6.826,16.211,16.211,0,0,1,2.844-3.328c.147-.133.287-.273.431-.41a.378.378,0,0,0,.1-.378.983.983,0,0,0-.831-.745,1.528,1.528,0,0,0-.7.095c-.126.044-.257.074-.429.123a1.67,1.67,0,0,1,.023-.3,1.608,1.608,0,0,1,.328-.622,3.8,3.8,0,0,1,2.5-1.376,3.038,3.038,0,0,1,2.013.458,1.435,1.435,0,0,1,.249.2.779.779,0,0,1,.215.8,2.142,2.142,0,0,1-.33.725c-.13.178-.269.351-.406.525-.052.067-.129.145-.072.22a.291.291,0,0,0,.218.088,1.935,1.935,0,0,0,.517-.076,2.018,2.018,0,0,0,.842-.49l.017-.015a10.823,10.823,0,0,0,1.771-1.842c.706-.832,1.428-1.649,2.141-2.474a2.135,2.135,0,0,0,.208-.3c.153-.255.289-.52.451-.769a5.234,5.234,0,0,1,1.663-1.643c.481-.293.981-.557,1.472-.833l.183-.1a.5.5,0,0,0-.337-.159,4.464,4.464,0,0,0-1.252-.073l-1.985.149c-.1.007-.2.01-.3.016a.505.505,0,0,1,.03-.487,9.189,9.189,0,0,1,1.385-2.01,8.982,8.982,0,0,1,.707-.615,29.2,29.2,0,0,1,3.36-2.453c.071-.043.138-.093.232-.157-.074-.054-.132-.1-.192-.138s-.143-.088-.213-.134a.327.327,0,0,1-.14-.5,9.3,9.3,0,0,1,1.29-1.992c.205-.245.43-.474.648-.709a.363.363,0,0,1,.45-.091c.446.178.9.323,1.352.5a3.774,3.774,0,0,1,.613.3.984.984,0,0,1,.455,1.418,3.837,3.837,0,0,1-.807,1.211,4.277,4.277,0,0,1-1.778,1.129,25.651,25.651,0,0,0-3.023,1.243,10.73,10.73,0,0,0-2.326,1.569c-.14.125-.317.216-.4.436l.384-.062c.556-.092,1.111-.2,1.669-.274a7.342,7.342,0,0,1,2.143.045,1.382,1.382,0,0,1,.369.113.449.449,0,0,1,.256.551,1.918,1.918,0,0,1-.122.368,3.1,3.1,0,0,1-1.439,1.6c-.612.293-1.23.572-1.839.872-.328.161-.644.346-.96.531a2.19,2.19,0,0,0-.609.548.826.826,0,0,0-.169.709,1.86,1.86,0,0,0,.544.985c.175.17.343.346.52.515a1.031,1.031,0,0,1,.245,1.12,2.837,2.837,0,0,1-.973,1.409,3.9,3.9,0,0,1-.515.337.516.516,0,0,1-.462.024c-.4-.152-.8-.294-1.205-.432-.144-.049-.294-.078-.442-.117a.944.944,0,0,0-.79.129,6.682,6.682,0,0,0-.834.635c-.407.379-.783.791-1.176,1.187q-.282.284-.574.557a2.88,2.88,0,0,1-1,.59,1.28,1.28,0,0,1-.853.027c-.362-.118-.721-.248-1.069-.4a.678.678,0,0,0-.592,0,5.733,5.733,0,0,0-1.2.744,8.712,8.712,0,0,0-1.892,2.157,12.036,12.036,0,0,0-1.69,4.173,5.641,5.641,0,0,0,.145,3.026,4.635,4.635,0,0,0,2.731,2.818,6.816,6.816,0,0,0,2,.464,9.488,9.488,0,0,0,6.03-1.525,12.579,12.579,0,0,0,3.144-2.7c.422-.51.8-1.059,1.2-1.586a3.825,3.825,0,0,1,.383-.422c.079-.076.185-.172.3-.092s.059.212.017.313a7.824,7.824,0,0,1-.33.728,21.577,21.577,0,0,1-2.835,4.061,23.922,23.922,0,0,1-3.822,3.535,8.827,8.827,0,0,1-3.133,1.508,7.667,7.667,0,0,1-1.446.216,2.166,2.166,0,0,0-.245.038Z" transform="translate(-5734.368 -28.096)" fill="#197b30"/>
      <path id="Path_19651" data-name="Path 19651" d="M-551.607-2020.571a.728.728,0,0,1,.095.455q-.017.56-.061,1.119-.17,2.132-.349,4.264c-.086,1.018-.157,2.038-.275,3.052a12.554,12.554,0,0,1-1.187,4.065c-.153.314-.347.609-.522.913-.033.058-.068.114-.109.182a.391.391,0,0,0,.091.044,3.116,3.116,0,0,0,2.221-.407,5.654,5.654,0,0,0,1.083-.91,3.283,3.283,0,0,0,.8-1.74,10.717,10.717,0,0,0,.135-1.134c.083-1.385.162-2.771.225-4.158a16.122,16.122,0,0,1,1.075-5.056c.221-.577.454-1.148.684-1.722.044-.11.089-.225.261-.261a2.205,2.205,0,0,1,.013.281c-.037.433-.08.865-.122,1.3q-.095.991-.19,1.981a.433.433,0,0,0,.017.089c.075-.065.139-.115.2-.171,1.3-1.243,2.613-2.477,3.9-3.734q3.449-3.362,6.873-6.75c1.06-1.053,2.08-2.148,3.112-3.229.21-.22.4-.464.593-.7.025-.029.042-.072.073-.086.059-.027.136-.066.185-.047a.2.2,0,0,1,.091.16,1.5,1.5,0,0,1-.069.426c-.158.437-.334.867-.5,1.3a5.3,5.3,0,0,1-1.095,1.7q-1.55,1.686-3.212,3.259-3.915,3.72-7.852,7.416c-.053.05-.1.1-.182.185.106-.005.164-.006.222-.011a4,4,0,0,1,1.183.064,1.994,1.994,0,0,1,1.668,1.792,5.691,5.691,0,0,1-.018,1.46,12.442,12.442,0,0,1-1.722,4.905,4.521,4.521,0,0,1-1.268,1.366,2.592,2.592,0,0,1-2.1.462,1.828,1.828,0,0,1-.951-.515c-.043-.043-.077-.094-.146-.18-.045.117-.076.188-.1.261a11,11,0,0,1-.92,2.114,8.44,8.44,0,0,1-1.3,1.736,2.733,2.733,0,0,1-1.579.811,1.807,1.807,0,0,1-1.476-.406c-.306-.263-.6-.537-.893-.82a.549.549,0,0,1-.07-.8,4.094,4.094,0,0,1,.294-.38,4.091,4.091,0,0,0,.947-2.217,23.025,23.025,0,0,0,.192-3.492,15.433,15.433,0,0,1,.818-5.125c.305-.934.642-1.859.968-2.787A.442.442,0,0,1-551.607-2020.571Zm5.5,8.428a2.956,2.956,0,0,0,1.7-.467,1.177,1.177,0,0,0,.56-1.081,1.223,1.223,0,0,0-.564-.992,2.5,2.5,0,0,0-2.044-.4,2.514,2.514,0,0,0-1.159.612.992.992,0,0,0-.37.662,1.339,1.339,0,0,0,.474,1.181A1.964,1.964,0,0,0-546.105-2012.142Z" transform="translate(-3127.754 0)" fill="#197b30"/>
      <path id="Path_19652" data-name="Path 19652" d="M-2306.611-1490.987a13.314,13.314,0,0,1,.728-3.859,26.307,26.307,0,0,1,1.141-2.867q.921-1.968,1.842-3.936c.091-.193.193-.381.294-.569a1.285,1.285,0,0,1,.126-.191c.058-.072.124-.146.229-.115a.209.209,0,0,1,.14.237,1.974,1.974,0,0,1-.077.514c-.147.417-.312.828-.485,1.234-.451,1.059-.921,2.11-1.364,3.173a17.332,17.332,0,0,0-1.1,3.625,4.21,4.21,0,0,0,0,1.7,2.94,2.94,0,0,0,1.881,2.116,4.726,4.726,0,0,0,1.4.323,6.969,6.969,0,0,0,4.941-1.416,7.006,7.006,0,0,0,1.968-2.321,2.412,2.412,0,0,0,.317-1.018.485.485,0,0,0-.35-.571,7.632,7.632,0,0,0-.805-.256,3.451,3.451,0,0,1-.941-.406,1.708,1.708,0,0,1-.833-1.442,4.842,4.842,0,0,1,.207-1.558,12.772,12.772,0,0,1,2.052-4.112,20.225,20.225,0,0,1,2.09-2.454,13.69,13.69,0,0,1,3.119-2.3,4.772,4.772,0,0,1,.8-.335c.365-.118.575.073.491.448a7.267,7.267,0,0,1-.319,1.118c-.23.572-.5,1.13-.771,1.684a2.206,2.206,0,0,1-.377.511c-.124.132-.2.136-.333.008a.791.791,0,0,0-.868-.151,4.265,4.265,0,0,0-1.04.469,9.92,9.92,0,0,0-2.935,2.846,3.029,3.029,0,0,0-.244.439.728.728,0,0,0,.312.983c.184.106.383.187.578.274s.421.177.627.277a1.248,1.248,0,0,1,.645.738,2.96,2.96,0,0,1,.153,1.013,11.034,11.034,0,0,1-.206,2.091,16.246,16.246,0,0,1-1.706,4.928,10.1,10.1,0,0,1-3.152,3.448,6.3,6.3,0,0,1-3.768,1.065,5.083,5.083,0,0,1-1.682-.3,3.9,3.9,0,0,1-2.5-2.876A7.309,7.309,0,0,1-2306.611-1490.987Z" transform="translate(-1416.426 -513.097)" fill="#197b30"/>
      <path id="Path_19653" data-name="Path 19653" d="M-3753.236-1457.06a1,1,0,0,1-.023.829c-.214.463-.437.923-.635,1.394a12.815,12.815,0,0,0-.9,3.11,4.6,4.6,0,0,0,.111,2.1,3.1,3.1,0,0,0,1.133,1.594,4.826,4.826,0,0,0,2.329.875,8.157,8.157,0,0,0,4.409-.744,7.266,7.266,0,0,0,4.052-4.7,5.645,5.645,0,0,0,.209-1.651c.006-.709.015-1.419-.007-2.127a7.08,7.08,0,0,1,.339-2.365c.2-.646.442-1.282.673-1.919a4.427,4.427,0,0,1,.235-.5,1.266,1.266,0,0,1,.137-.21c.056-.071.12-.156.225-.122s.1.145.093.234c-.012.327-.035.655-.045.982-.03.96-.049,1.921-.083,2.881a18.966,18.966,0,0,1-1.655,7.266,15,15,0,0,1-2.638,4.044,8.959,8.959,0,0,1-3.635,2.465,7.2,7.2,0,0,1-2.4.425,4.843,4.843,0,0,1-3.293-1.155,4.625,4.625,0,0,1-1.447-2.564,8.4,8.4,0,0,1-.065-2.957,16.621,16.621,0,0,1,1.645-5.186c.279-.567.591-1.119.9-1.673A.6.6,0,0,1-3753.236-1457.06Z" transform="translate(0 -558.368)" fill="#197b30"/>
      <path id="Path_19654" data-name="Path 19654" d="M-67.34-1306.635a1,1,0,0,1-.024.83c-.211.457-.432.909-.627,1.372a12.757,12.757,0,0,0-.908,3.108,4.914,4.914,0,0,0,.019,1.8,3.185,3.185,0,0,0,1.486,2.106,5.026,5.026,0,0,0,2.064.694,8.161,8.161,0,0,0,4.409-.745,7.265,7.265,0,0,0,4.051-4.7,5.7,5.7,0,0,0,.21-1.651c.008-.717.015-1.434-.007-2.15a7.076,7.076,0,0,1,.345-2.365c.2-.646.442-1.282.676-1.918a4.381,4.381,0,0,1,.26-.533.712.712,0,0,1,.15-.2.231.231,0,0,1,.176-.066c.044.014.078.1.091.16a.833.833,0,0,1,0,.2c-.042,1.3-.075,2.607-.128,3.909a19.59,19.59,0,0,1-.783,4.749,16.581,16.581,0,0,1-2.81,5.559,10.477,10.477,0,0,1-2.726,2.515,7.583,7.583,0,0,1-3.982,1.191,4.78,4.78,0,0,1-3.333-1.169,4.617,4.617,0,0,1-1.424-2.527,8.419,8.419,0,0,1-.067-3,17.138,17.138,0,0,1,1.823-5.532c.225-.441.47-.872.714-1.3A.6.6,0,0,1-67.34-1306.635Z" transform="translate(-3601.547 -705.36)" fill="#197b30"/>
      <path id="Path_19655" data-name="Path 19655" d="M-1663.229-1469.777c.049-.082.094-.151.133-.223a8.482,8.482,0,0,1,1.311-1.782,5.939,5.939,0,0,1,.686-.6,1.54,1.54,0,0,1,1.12-.309c.076.008.153,0,.228.012a.614.614,0,0,0,.628-.29c.208-.3.4-.61.605-.915.045-.069.093-.136.154-.225l.124.149a.283.283,0,0,0,.469.042,1.26,1.26,0,0,0,.234-.279c.115-.188.212-.387.317-.582l.118-.221c.058.063.1.1.134.147a.475.475,0,0,0,.525.191,1.4,1.4,0,0,0,.8-.5.9.9,0,0,0,.163-.562c.008-.442.022-.885,0-1.327a2.6,2.6,0,0,1,.335-1.358c.331-.627.651-1.259.976-1.889.062-.12.112-.253.273-.289.1.074.1.186.095.289,0,.358-.011.717-.018,1.075-.01.511-.026,1.022-.031,1.532a4.2,4.2,0,0,1-.35,1.644,9.118,9.118,0,0,1-1.764,2.706,3.093,3.093,0,0,1-1.109.75,5.193,5.193,0,0,0-.813.413c-.39.239-.792.458-1.2.671a1.8,1.8,0,0,0-.516.372,2.079,2.079,0,0,1-1.232.647,2.036,2.036,0,0,0-.974.474,5.023,5.023,0,0,0-1.015,1.259,20.072,20.072,0,0,0-1.186,2.294c-.143.32-.287.64-.443.954a5.054,5.054,0,0,1-.31.532.5.5,0,0,1-.188.16.156.156,0,0,1-.235-.13.827.827,0,0,1,.019-.249c.053-.269.1-.54.172-.8a.543.543,0,0,0-.223-.621,2.06,2.06,0,0,0-.981-.413,4.314,4.314,0,0,0-3.757,1.06,13.034,13.034,0,0,0-1.091,1.169c-.947,1.136-1.863,2.3-2.817,3.429a16.135,16.135,0,0,1-3.33,2.982,6.44,6.44,0,0,1-.693.4q-1.041.526-2.09,1.035a1.372,1.372,0,0,1-.39.116.221.221,0,0,1-.189-.079.289.289,0,0,1,.039-.208.408.408,0,0,1,.129-.126c.494-.37.985-.745,1.486-1.1a25.371,25.371,0,0,0,3.407-2.939,28.5,28.5,0,0,0,2.788-3.561c.478-.679.964-1.355,1.476-2.009a13.078,13.078,0,0,1,2.058-2.139,6.754,6.754,0,0,1,2.544-1.355,5.012,5.012,0,0,1,1.974-.108,2.386,2.386,0,0,1,1.308.6C-1663.313-1469.842-1663.278-1469.816-1663.229-1469.777Z" transform="translate(-2028.156 -539.704)" fill="#197b30"/>
      <path id="Path_19656" data-name="Path 19656" d="M1206.9-1313.506c.06-.087.109-.154.156-.223a13.163,13.163,0,0,1,1.694-2.1,4.621,4.621,0,0,1,.664-.52.761.761,0,0,1,.862-.057.739.739,0,0,0,.171.065.671.671,0,0,0,.907-.347c.165-.3.281-.623.417-.937.018-.042.025-.088.041-.131.082-.227.21-.257.392-.095.04.036.077.075.12.106a.352.352,0,0,0,.529-.045,2.646,2.646,0,0,0,.305-.5c.088-.177.144-.369.229-.548a.63.63,0,0,1,.171-.208.1.1,0,0,1,.174.065.972.972,0,0,1,.019.318,6.224,6.224,0,0,1-.139.74,4.809,4.809,0,0,1-.888,1.74,1.487,1.487,0,0,1-.774.54,1.563,1.563,0,0,0-.744.472c-.138.153-.284.3-.423.45a.779.779,0,0,1-.607.27c-.168,0-.336-.005-.5-.023a.9.9,0,0,0-.67.173,3.637,3.637,0,0,0-.458.411,10.234,10.234,0,0,0-1.5,2.094c-.445.827-.814,1.689-1.22,2.534-.1.205-.212.405-.331.6a.6.6,0,0,1-.193.19.159.159,0,0,1-.258-.136,1.49,1.49,0,0,1,.037-.339c.047-.24.095-.479.154-.715a.539.539,0,0,0-.226-.6,2.181,2.181,0,0,0-1.048-.426,4.67,4.67,0,0,0-2.68.369,4.4,4.4,0,0,0-1.39,1.065c-.471.52-.915,1.063-1.364,1.6-.8.962-1.575,1.944-2.394,2.889a15.445,15.445,0,0,1-3.083,2.713,9.186,9.186,0,0,1-.954.541c-.612.311-1.229.611-1.848.907a1.241,1.241,0,0,1-.413.116c-.18.017-.244-.114-.143-.268a.605.605,0,0,1,.144-.145c.494-.37.985-.745,1.487-1.1a23.929,23.929,0,0,0,3.169-2.693,23.262,23.262,0,0,0,2.519-3.074c.611-.884,1.234-1.761,1.886-2.616a12.821,12.821,0,0,1,2.3-2.379,6.61,6.61,0,0,1,2.4-1.241,5.045,5.045,0,0,1,1.952-.112,2.394,2.394,0,0,1,1.227.52C1206.8-1313.575,1206.84-1313.549,1206.9-1313.506Z" transform="translate(-4832.675 -697.522)" fill="#197b30"/>
      <path id="Path_19657" data-name="Path 19657" d="M-1538.6-1739.736a4.291,4.291,0,0,1-.96-.624,2.676,2.676,0,0,1-.954-1.979,7.954,7.954,0,0,1,.129-1.8,23.21,23.21,0,0,1,1.734-5.479c.239-.544.5-1.079.76-1.612a3.535,3.535,0,0,1,.311-.478c.047-.066.11-.144.208-.1s.081.144.067.224a2.8,2.8,0,0,1-.1.4,30.262,30.262,0,0,0-.878,3.195,8.688,8.688,0,0,0-.253,2.22,2.689,2.689,0,0,0,.241.971,1.225,1.225,0,0,0,.652.643,2.885,2.885,0,0,0,1.088.234c.091,0,.183,0,.274,0,.187.009.259.065.239.253a3.649,3.649,0,0,1-.144.76,9.2,9.2,0,0,1-.843,1.748c-.34.577-.708,1.139-1.078,1.7a8.283,8.283,0,0,0-1.038,2,3.2,3.2,0,0,0-.121,1.69,1.505,1.505,0,0,0,.3.636c.164.2.294.2.424-.022.141-.243.251-.5.373-.758q.064-.134.118-.272a.141.141,0,0,1,.219-.085,1.385,1.385,0,0,1,.343.257,1.792,1.792,0,0,1,.44,1.287,4.289,4.289,0,0,1-.368,1.594,5.133,5.133,0,0,1-.784,1.284,4.582,4.582,0,0,1-.647.608,1.671,1.671,0,0,1-.934.338,1.391,1.391,0,0,1-1.142-.423,2.5,2.5,0,0,1-.739-1.769,5.561,5.561,0,0,1,.324-1.861,12.656,12.656,0,0,1,1.377-2.805c.386-.6.808-1.183,1.214-1.773Z" transform="translate(-2163.883 -274.685)" fill="#197b30"/>
      <path id="Path_19658" data-name="Path 19658" d="M1232.938-1246.073a2.1,2.1,0,0,1,.222-.3,5.694,5.694,0,0,1,.531-.433,17.665,17.665,0,0,0,2.845-2.5c.2-.218.377-.458.559-.693a.7.7,0,0,0,.08-.715,2.748,2.748,0,0,0-.434-.748,9.427,9.427,0,0,0-1.377-1.367c-.1-.084-.2-.163-.294-.254a.615.615,0,0,1-.131-.754q.683-1.447,1.369-2.892c.11-.231.249-.287.48-.14a8.45,8.45,0,0,1,.983.7,4,4,0,0,1,1.422,2.655,5.71,5.71,0,0,1-.075,1.48,8.042,8.042,0,0,1-1.749,3.895,5.26,5.26,0,0,1-2.128,1.539c-.483.2-.986.361-1.487.518a2.234,2.234,0,0,1-.543.059A1.329,1.329,0,0,1,1232.938-1246.073Z" transform="translate(-4874.985 -758.227)" fill="#197b30"/>
      <path id="Path_19659" data-name="Path 19659" d="M-2933.227-1443.626a2.413,2.413,0,0,1-.327,0,.691.691,0,0,1-.256-.085.185.185,0,0,1-.056-.308,1.4,1.4,0,0,1,.28-.267q.943-.667,1.894-1.322c.589-.407,1.184-.808,1.772-1.216.131-.091.249-.2.373-.3a3.385,3.385,0,0,0,.994-1.318c.321-.749.675-1.485,1.018-2.225.08-.173.178-.337.261-.509a4.031,4.031,0,0,1,1.806-1.788q.673-.365,1.356-.714a2.144,2.144,0,0,0,.911-.872c.151-.265.308-.526.47-.785a1.188,1.188,0,0,1,.2-.245c.1-.092.192-.058.2.081a1.513,1.513,0,0,1-.03.43,11.463,11.463,0,0,1-.672,2.014,10.247,10.247,0,0,1-.58,1.114,2.279,2.279,0,0,1-1.044.926c-.472.212-.926.466-1.385.707a2.343,2.343,0,0,0-1.053,1.047c-.2.41-.4.821-.583,1.24-.273.638-.516,1.288-.792,1.924a3.482,3.482,0,0,1-1.677,1.805,3.7,3.7,0,0,1-.841.287c-.618.134-1.242.238-1.865.348C-2932.982-1443.636-2933.121-1443.635-2933.227-1443.626Z" transform="translate(-803.476 -564.089)" fill="#197b30"/>
      <path id="Path_19660" data-name="Path 19660" d="M1891.231-1633.054c-.084.163-.145.3-.223.431-.228.378-.45.76-.7,1.124a2.119,2.119,0,0,1-.421.413.312.312,0,0,1-.4.006,13.219,13.219,0,0,1-1.554-1.238.271.271,0,0,1-.068-.348c.048-.1.083-.214.137-.314q.588-1.085,1.184-2.165a2.28,2.28,0,0,1,.223-.318c.121-.151.172-.162.355-.089a1.11,1.11,0,0,1,.2.1,4.109,4.109,0,0,1,1.315,1.281.849.849,0,0,0,.055.07c.038-.051.076-.093.105-.14.285-.469.566-.94.855-1.406.1-.161.218-.312.331-.466a.225.225,0,0,1,.281-.092,2.784,2.784,0,0,1,.418.177,2.854,2.854,0,0,1,.949.908,1.429,1.429,0,0,1,.191,1.307,3.525,3.525,0,0,1-.283.672c-.206.346-.441.674-.674,1a1.884,1.884,0,0,1-.283.3c-.245.221-.378.229-.644.027a4.711,4.711,0,0,1-.388-.353c-.231-.221-.458-.447-.691-.667C1891.428-1632.9,1891.341-1632.964,1891.231-1633.054Z" transform="translate(-5514.89 -387.638)" fill="#197b30"/>
      <path id="Path_19661" data-name="Path 19661" d="M-897.819-1757.037c.049-.076.092-.138.131-.2.273-.449.542-.9.818-1.348.092-.149.2-.286.3-.432a.286.286,0,0,1,.376-.118,2.081,2.081,0,0,1,.293.125,2.88,2.88,0,0,1,1.069,1.04,1.411,1.411,0,0,1,.163,1.121,3.984,3.984,0,0,1-.636,1.308,6.349,6.349,0,0,1-.613.736c-.246.254-.4.255-.677.038-.138-.107-.26-.234-.387-.354-.254-.241-.506-.485-.761-.725a2.187,2.187,0,0,0-.2-.145c-.047.091-.081.166-.123.236-.252.426-.494.858-.764,1.272a2.156,2.156,0,0,1-.428.438.332.332,0,0,1-.44.013,14.518,14.518,0,0,1-1.519-1.209.292.292,0,0,1-.08-.386c.232-.463.45-.933.7-1.389.223-.416.464-.823.717-1.221.233-.368.316-.385.678-.156a3.98,3.98,0,0,1,1.306,1.257C-897.876-1757.109-897.852-1757.081-897.819-1757.037Z" transform="translate(-2789.556 -267.505)" fill="#197b30"/>
      <path id="Path_19662" data-name="Path 19662" d="M-2736.995-804.574c-.128.238-.222.438-.338.624-.2.323-.409.643-.631.951a1.7,1.7,0,0,1-.348.326.386.386,0,0,1-.506,0c-.031-.023-.063-.043-.093-.067q-.582-.481-1.162-.963c-.047-.039-.087-.085-.134-.125a.292.292,0,0,1-.089-.386c.026-.055.043-.114.069-.169a19.791,19.791,0,0,1,1.323-2.427c.229-.356.4-.4.747-.142a6.69,6.69,0,0,1,.729.656c.2.2.374.419.572.644.041-.059.081-.11.115-.166.249-.411.493-.824.747-1.232.116-.187.251-.363.378-.543a.273.273,0,0,1,.343-.105,1.79,1.79,0,0,1,.39.185,3.377,3.377,0,0,1,.991,1.062,1.3,1.3,0,0,1,.138,1.119,3.575,3.575,0,0,1-.135.364,5.561,5.561,0,0,1-1.018,1.483c-.325.346-.47.351-.829.045-.2-.173-.387-.367-.585-.546C-2736.536-804.177-2736.755-804.365-2736.995-804.574Z" transform="translate(-992.638 -1197.179)" fill="#197b30"/>
      <path id="Path_19663" data-name="Path 19663" d="M1113.472-1527.3c-.035.373-.076.691-.094,1.011-.056,1.043-.112,2.086-.153,3.13-.047,1.219-.063,2.44-.12,3.659a11.478,11.478,0,0,1-1.15,4.582,8.058,8.058,0,0,1-.571.907.744.744,0,0,1-.234.212c-.123.073-.228.006-.233-.139a.958.958,0,0,1,.026-.2c.114-.607.24-1.211.34-1.82a17.543,17.543,0,0,0,.157-2.9c0-.709,0-1.419-.022-2.128a11,11,0,0,1,1.121-5.134c.159-.338.32-.675.485-1.01a.876.876,0,0,1,.169-.241.206.206,0,0,1,.178-.05C1113.428-1527.4,1113.459-1527.32,1113.472-1527.3Z" transform="translate(-4755.756 -493.936)" fill="#197b30"/>
      <path id="Path_19664" data-name="Path 19664" d="M-2410.124-1557.512c.072-.354.132-.677.2-1a16.993,16.993,0,0,0,.334-3.865c-.009-.786,0-1.571-.02-2.356a10.432,10.432,0,0,1,.948-4.552c.207-.467.428-.927.649-1.387a.917.917,0,0,1,.184-.257.2.2,0,0,1,.18-.036c.048.023.069.105.1.164.008.017-.007.044-.01.067-.132,1-.176,2.005-.21,3.011-.05,1.456-.074,2.912-.137,4.367a11.725,11.725,0,0,1-.628,3.568c-.157.429-.335.851-.513,1.272a3.954,3.954,0,0,1-.574.932,1.409,1.409,0,0,1-.19.2c-.064.054-.149.11-.226.042A.46.46,0,0,1-2410.124-1557.512Z" transform="translate(-1315.292 -451.392)" fill="#197b30"/>
      <path id="Path_19665" data-name="Path 19665" d="M-3017.117-1570.8c-.029.287-.063.529-.077.773-.062,1.1-.128,2.192-.171,3.289-.045,1.158-.048,2.318-.1,3.476a11.813,11.813,0,0,1-.636,3.543c-.158.429-.338.85-.517,1.271a3.826,3.826,0,0,1-.58.928.946.946,0,0,1-.215.2.211.211,0,0,1-.185.016.239.239,0,0,1-.072-.175,1.178,1.178,0,0,1,.038-.248c.115-.622.243-1.242.341-1.866a17.4,17.4,0,0,0,.143-2.761c0-.968-.009-1.937-.005-2.905a9.264,9.264,0,0,1,.621-3.194,20.029,20.029,0,0,1,.962-2.173.983.983,0,0,1,.184-.258.2.2,0,0,1,.18-.037C-3017.158-1570.9-3017.131-1570.818-3017.117-1570.8Z" transform="translate(-719.692 -451.438)" fill="#197b30"/>
      <path id="Path_19666" data-name="Path 19666" d="M666.694-1573.907c0-.816-.011-1.632,0-2.448a8.916,8.916,0,0,1,.718-3.219c.261-.642.563-1.267.853-1.9a.912.912,0,0,1,.2-.275c.107-.1.245-.035.26.112a.533.533,0,0,1-.008.09c-.07,1-.162,2.007-.206,3.011-.062,1.425-.081,2.851-.131,4.276a11.976,11.976,0,0,1-1.181,4.991,8.663,8.663,0,0,1-.556.889.736.736,0,0,1-.213.2.217.217,0,0,1-.186.021.227.227,0,0,1-.077-.171,1.287,1.287,0,0,1,.043-.27,23.538,23.538,0,0,0,.406-2.412c.077-.845.076-1.691.073-2.537,0-.122,0-.244,0-.366Z" transform="translate(-4321.185 -440.817)" fill="#197b30"/>
      <path id="Path_19667" data-name="Path 19667" d="M708.49-1211.107c-.1.453-.188.909-.305,1.358a30.516,30.516,0,0,1-1.771,4.99,6.407,6.407,0,0,1-.676,1.164,3.02,3.02,0,0,1-1.28,1,12.2,12.2,0,0,1-1.92.592c-.51.122-1.03.205-1.546.3a1.06,1.06,0,0,1-.227.019c-.224-.007-.321-.16-.206-.356a1.456,1.456,0,0,1,.315-.385c.228-.189.475-.356.721-.522.695-.469,1.393-.932,2.089-1.4.07-.047.135-.1.2-.148a6.031,6.031,0,0,0,1.885-2.141q.768-1.444,1.391-2.956.3-.729.617-1.451a1.785,1.785,0,0,1,.193-.336c.1-.138.227-.185.332-.139.134.058.146.184.157.307,0,.03,0,.061,0,.091Z" transform="translate(-4354.741 -802.609)" fill="#197b30"/>
      <path id="Path_19668" data-name="Path 19668" d="M-3492.758-1285.825a14.651,14.651,0,0,1,1.475,1.261,1.632,1.632,0,0,1,.393,1.573,4.261,4.261,0,0,1-1.225,2.106c-.461.423-.523.307-.854.046-.432-.339-.846-.7-1.266-1.053a2.1,2.1,0,0,1-.181-.174c-.188-.2-.193-.251-.072-.5.1-.2.192-.4.279-.6a18.424,18.424,0,0,1,1.355-2.513C-3492.831-1285.721-3492.8-1285.758-3492.758-1285.825Z" transform="translate(-255.662 -730.014)" fill="#197b30"/>
      <path id="Path_19669" data-name="Path 19669" d="M193.162-1136.438c.483.416.963.793,1.4,1.215a1.629,1.629,0,0,1,.428,1.747,4.369,4.369,0,0,1-1.2,2c-.367.339-.47.353-.857.042-.422-.338-.833-.691-1.247-1.039a2.279,2.279,0,0,1-.182-.174c-.2-.212-.208-.262-.084-.521.1-.2.192-.4.279-.6a18.32,18.32,0,0,1,1.356-2.513C193.081-1136.323,193.108-1136.36,193.162-1136.438Z" transform="translate(-3857.223 -875.982)" fill="#197b30"/>
      <path id="Path_19670" data-name="Path 19670" d="M2936.477-1251.177c-.047.186-.079.367-.138.539a7.128,7.128,0,0,1-.988,1.847c-.27.37-.353.386-.725.138q-.627-.418-1.232-.869a.588.588,0,0,1-.253-.812,4.734,4.734,0,0,1,.239-.617c.242-.5.495-1,.747-1.49a3.9,3.9,0,0,1,.212-.352c.226-.347.409-.4.756-.165a3.891,3.891,0,0,1,1.276,1.437A1.932,1.932,0,0,1,2936.477-1251.177Z" transform="translate(-6536.216 -761.988)" fill="#197b30"/>
      <path id="Path_19671" data-name="Path 19671" d="M1964.033-1803.454a2.664,2.664,0,0,1-.209.937,7.569,7.569,0,0,1-.765,1.428,2.649,2.649,0,0,1-.28.33.242.242,0,0,1-.333.035,3.52,3.52,0,0,1-.318-.222q-.61-.5-1.214-1.007c-.234-.2-.264-.3-.151-.578a19.656,19.656,0,0,1,1.15-2.413,3.116,3.116,0,0,1,.224-.317.217.217,0,0,1,.243-.088,1.956,1.956,0,0,1,.428.149,2.456,2.456,0,0,1,1.117,1.285A2.8,2.8,0,0,1,1964.033-1803.454Z" transform="translate(-5586.091 -222.37)" fill="#197b30"/>
      <path id="Path_19672" data-name="Path 19672" d="M-825.251-1926.55a5.367,5.367,0,0,1-.126.558,6.593,6.593,0,0,1-.933,1.8c-.279.387-.391.4-.757.115-.454-.36-.9-.733-1.34-1.107-.211-.178-.233-.278-.128-.543a19.823,19.823,0,0,1,1.147-2.415,2.21,2.21,0,0,1,.138-.21c.169-.233.227-.254.5-.169a1.917,1.917,0,0,1,.781.5,2.248,2.248,0,0,1,.671,1.148C-825.278-1926.779-825.27-1926.688-825.251-1926.55Z" transform="translate(-2860.627 -101.98)" fill="#197b30"/>
      <path id="Path_19673" data-name="Path 19673" d="M-574.292-2003.8a6.018,6.018,0,0,1-.148.6,7.158,7.158,0,0,1-.979,1.824c-.28.381-.357.4-.744.138-.418-.279-.828-.57-1.231-.87a.572.572,0,0,1-.249-.773,3.153,3.153,0,0,1,.18-.492c.306-.621.622-1.237.935-1.854a1.71,1.71,0,0,1,.109-.174c.2-.3.371-.34.692-.163a1.5,1.5,0,0,1,.227.153,4.552,4.552,0,0,1,.994,1.125A3.678,3.678,0,0,1-574.292-2003.8Z" transform="translate(-3105.784 -26.647)" fill="#197b30"/>
    </g>
    <g id="Group_3546" data-name="Group 3546" transform="translate(1198 17)">
      <rect id="Rectangle_1" data-name="Rectangle 1" width="9.542" height="9.542" transform="translate(30 23.252) rotate(45)" fill="#197b30"/>
      <rect id="Rectangle_2" data-name="Rectangle 2" width="9.542" height="9.542" transform="translate(25.229 25.229)" fill="#197b30"/>
      <path id="Path_37" data-name="Path 37" d="M9.674,1120.649a13,13,0,0,1-.444-7.9,15.055,15.055,0,0,0-9.224,4.221,14.4,14.4,0,0,0,3.527,9.467,18.747,18.747,0,0,1,6.141-5.786Z" transform="translate(-0.006 -1099.394)" fill="#197b30"/>
      <path id="Path_38" data-name="Path 38" d="M9.44,2748.545a13,13,0,0,1-5.9-5.273A15.055,15.055,0,0,0,0,2752.779a14.4,14.4,0,0,0,9.188,4.2,18.747,18.747,0,0,1,.251-8.433Z" transform="translate(0 -2710.353)" fill="#197b30"/>
      <path id="Path_39" data-name="Path 39" d="M1120.649,4194.3a13,13,0,0,1-7.9.444,15.052,15.052,0,0,0,4.221,9.224,14.4,14.4,0,0,0,9.467-3.527,18.748,18.748,0,0,1-5.786-6.141Z" transform="translate(-1099.394 -4143.966)" fill="#197b30"/>
      <path id="Path_40" data-name="Path 40" d="M2748.545,4213.368a13,13,0,0,1-5.273,5.9,15.055,15.055,0,0,0,9.507,3.538,14.4,14.4,0,0,0,4.2-9.188,18.76,18.76,0,0,1-8.433-.251Z" transform="translate(-2710.353 -4162.808)" fill="#197b30"/>
      <path id="Path_41" data-name="Path 41" d="M4194.3,2752.409a13,13,0,0,1,.444,7.9,15.052,15.052,0,0,0,9.224-4.221,14.4,14.4,0,0,0-3.527-9.467,18.753,18.753,0,0,1-6.141,5.786Z" transform="translate(-4143.966 -2713.664)" fill="#197b30"/>
      <path id="Path_42" data-name="Path 42" d="M4213.368,1122.916a13,13,0,0,1,5.9,5.274,15.056,15.056,0,0,0,3.538-9.507,14.4,14.4,0,0,0-9.188-4.2,18.76,18.76,0,0,1-.251,8.433Z" transform="translate(-4162.808 -1101.109)" fill="#197b30"/>
      <path id="Path_43" data-name="Path 43" d="M2752.409,9.674a13,13,0,0,1,7.9-.444A15.054,15.054,0,0,0,2756.09.006a14.4,14.4,0,0,0-9.467,3.527,18.752,18.752,0,0,1,5.786,6.141Z" transform="translate(-2713.664 -0.006)" fill="#197b30"/>
      <path id="Path_44" data-name="Path 44" d="M1122.916,9.44a13,13,0,0,1,5.274-5.9A15.056,15.056,0,0,0,1118.683,0a14.4,14.4,0,0,0-4.2,9.188,18.747,18.747,0,0,1,8.433.251Z" transform="translate(-1101.109)" fill="#197b30"/>
      <path id="Path_45" data-name="Path 45" d="M2128.049,370.038a5.314,5.314,0,0,1,1.633,2.49,5.925,5.925,0,0,1-1.088,5.043l1.863,1.862a8.574,8.574,0,0,0,2.2-6.3c-.376-4.518-4.442-6.659-4.688-6.784a8.369,8.369,0,0,0-3.717,11.2,12.685,12.685,0,0,0,2.229,2.828,55.4,55.4,0,0,0,4.041,3.951l3.71-.051c-1.37-1.51-2.517-2.657-3.333-3.443-.984-.948-1.935-1.93-2.909-2.888a7.187,7.187,0,0,1-1.005-1.076,5.477,5.477,0,0,1-.836-3.758A5.074,5.074,0,0,1,2128.049,370.038Z" transform="translate(-2097.913 -361.959)" fill="#197b30"/>
      <path id="Path_46" data-name="Path 46" d="M966.422,958.6a5.315,5.315,0,0,1,2.915.607,5.925,5.925,0,0,1,2.8,4.336h2.634a8.575,8.575,0,0,0-2.9-6.006c-3.461-2.929-7.85-1.568-8.112-1.481a8.369,8.369,0,0,0,5.289,10.546,12.7,12.7,0,0,0,3.576.423,55.412,55.412,0,0,0,5.652-.063l2.587-2.659c-2.036-.1-3.659-.1-4.792-.078-1.366.025-2.733,0-4.1.015a7.178,7.178,0,0,1-1.472-.05,5.477,5.477,0,0,1-3.249-2.066A5.074,5.074,0,0,1,966.422,958.6Z" transform="translate(-951.826 -944.201)" fill="#197b30"/>
      <path id="Path_47" data-name="Path 47" d="M370.038,1979.924a5.317,5.317,0,0,1,2.49-1.632,5.925,5.925,0,0,1,5.043,1.088l1.862-1.863a8.574,8.574,0,0,0-6.3-2.2c-4.518.376-6.659,4.442-6.784,4.688a8.369,8.369,0,0,0,11.2,3.718,12.7,12.7,0,0,0,2.828-2.229,55.4,55.4,0,0,0,3.951-4.041l-.051-3.71c-1.51,1.37-2.657,2.517-3.443,3.333-.948.984-1.93,1.935-2.888,2.909a7.179,7.179,0,0,1-1.076,1.005,5.477,5.477,0,0,1-3.758.836A5.073,5.073,0,0,1,370.038,1979.924Z" transform="translate(-361.959 -1950.06)" fill="#197b30"/>
      <path id="Path_48" data-name="Path 48" d="M958.6,2594.811a5.315,5.315,0,0,1,.607-2.915,5.925,5.925,0,0,1,4.336-2.8v-2.634a8.576,8.576,0,0,0-6.006,2.9c-2.929,3.461-1.568,7.85-1.481,8.112a8.369,8.369,0,0,0,10.546-5.289,12.694,12.694,0,0,0,.423-3.576,55.418,55.418,0,0,0-.063-5.652l-2.659-2.587c-.1,2.037-.1,3.659-.078,4.792.025,1.366,0,2.732.015,4.1a7.179,7.179,0,0,1-.05,1.472,5.476,5.476,0,0,1-2.066,3.249A5.071,5.071,0,0,1,958.6,2594.811Z" transform="translate(-944.201 -2549.407)" fill="#197b30"/>
      <path id="Path_49" data-name="Path 49" d="M1979.924,3149.94a5.317,5.317,0,0,1-1.632-2.49,5.925,5.925,0,0,1,1.088-5.043l-1.863-1.863a8.575,8.575,0,0,0-2.2,6.3c.376,4.519,4.442,6.659,4.688,6.784a8.369,8.369,0,0,0,3.718-11.2,12.7,12.7,0,0,0-2.229-2.828,55.463,55.463,0,0,0-4.041-3.951l-3.71.051c1.37,1.51,2.517,2.657,3.333,3.443.984.948,1.935,1.929,2.909,2.888a7.179,7.179,0,0,1,1.005,1.076,5.477,5.477,0,0,1,.836,3.758A5.073,5.073,0,0,1,1979.924,3149.94Z" transform="translate(-1950.06 -3098.019)" fill="#197b30"/>
      <path id="Path_50" data-name="Path 50" d="M2594.811,3102.513a5.314,5.314,0,0,1-2.915-.606,5.925,5.925,0,0,1-2.8-4.336h-2.634a8.576,8.576,0,0,0,2.9,6.006c3.461,2.929,7.85,1.567,8.112,1.481a8.369,8.369,0,0,0-5.289-10.546,12.664,12.664,0,0,0-3.576-.423,55.37,55.37,0,0,0-5.652.063l-2.587,2.659c2.037.1,3.659.1,4.792.078,1.366-.025,2.732,0,4.1-.015a7.156,7.156,0,0,1,1.472.05,5.476,5.476,0,0,1,3.249,2.065A5.072,5.072,0,0,1,2594.811,3102.513Z" transform="translate(-2549.407 -3056.917)" fill="#197b30"/>
      <path id="Path_51" data-name="Path 51" d="M3149.94,2128.049a5.313,5.313,0,0,1-2.49,1.633,5.925,5.925,0,0,1-5.043-1.088l-1.863,1.863a8.575,8.575,0,0,0,6.3,2.2c4.519-.376,6.659-4.442,6.784-4.688a8.369,8.369,0,0,0-11.2-3.717,12.683,12.683,0,0,0-2.828,2.229,55.463,55.463,0,0,0-3.951,4.041l.051,3.71c1.51-1.37,2.657-2.517,3.443-3.333.948-.984,1.929-1.935,2.888-2.909a7.186,7.186,0,0,1,1.076-1.005,5.477,5.477,0,0,1,3.758-.836A5.074,5.074,0,0,1,3149.94,2128.049Z" transform="translate(-3098.019 -2097.913)" fill="#197b30"/>
      <path id="Path_52" data-name="Path 52" d="M3102.513,966.422a5.314,5.314,0,0,1-.606,2.915,5.925,5.925,0,0,1-4.336,2.8v2.634a8.576,8.576,0,0,0,6.006-2.9c2.929-3.461,1.567-7.85,1.481-8.112a8.369,8.369,0,0,0-10.546,5.289,12.666,12.666,0,0,0-.423,3.576,55.364,55.364,0,0,0,.063,5.652l2.659,2.587c.1-2.036.1-3.659.078-4.792-.025-1.366,0-2.733-.015-4.1a7.155,7.155,0,0,1,.05-1.472,5.477,5.477,0,0,1,2.065-3.249A5.075,5.075,0,0,1,3102.513,966.422Z" transform="translate(-3056.917 -951.826)" fill="#197b30"/>
    </g>
  </g>
</svg>
