<svg id="fi-rr-clock" xmlns="http://www.w3.org/2000/svg" width="16" height="16" viewBox="0 0 16 16">
  <path id="Path_19642" data-name="Path 19642" d="M8,0a8,8,0,1,0,8,8A8,8,0,0,0,8,0ZM8,14.667A6.667,6.667,0,1,1,14.667,8,6.667,6.667,0,0,1,8,14.667Z" fill="#197b30"/>
  <path id="Path_19643" data-name="Path 19643" d="M10.386,6a.667.667,0,0,0-.667.667V9.55L7.472,10.958a.668.668,0,1,0,.708,1.133l2.56-1.6a.667.667,0,0,0,.313-.572V6.667A.667.667,0,0,0,10.386,6Z" transform="translate(-2.386 -2)" fill="#197b30"/>
</svg>
