<svg xmlns="http://www.w3.org/2000/svg" width="16" height="20" viewBox="0 0 16 20">
  <path id="fi-rr-copy-alt" d="M10.8,16.667a4.091,4.091,0,0,0,4-4.167V5.2a3.381,3.381,0,0,0-.938-2.357L12.069.977A3.115,3.115,0,0,0,9.806,0H6A4.091,4.091,0,0,0,2,4.167V12.5a4.091,4.091,0,0,0,4,4.167ZM3.6,12.5V4.167A2.452,2.452,0,0,1,6,1.667s3.935.012,4,.02V3.333A1.634,1.634,0,0,0,11.6,5h1.581c.008.068.019,7.5.019,7.5A2.452,2.452,0,0,1,10.8,15H6a2.452,2.452,0,0,1-2.4-2.5ZM18,6.667v9.167A4.091,4.091,0,0,1,14,20H6.8a.834.834,0,0,1,0-1.667H14a2.452,2.452,0,0,0,2.4-2.5V6.667a.8.8,0,1,1,1.6,0Z" transform="translate(-2 0)" fill="#197b30"/>
</svg>
