<svg id="fi-rr-download" xmlns="http://www.w3.org/2000/svg" width="14" height="14" viewBox="0 0 14 14">
  <path id="Path_19647" data-name="Path 19647" d="M13.417,16h0a.583.583,0,0,0-.583.583v2.333a.583.583,0,0,1-.583.583H1.75a.583.583,0,0,1-.583-.583V16.583A.583.583,0,0,0,.583,16h0A.583.583,0,0,0,0,16.583v2.333a1.75,1.75,0,0,0,1.75,1.75h10.5A1.75,1.75,0,0,0,14,18.917V16.583A.583.583,0,0,0,13.417,16Z" transform="translate(0 -6.667)" fill="#fff"/>
  <path id="Path_19648" data-name="Path 19648" d="M5.171,7.9l2.675,2.676a1.754,1.754,0,0,0,2.475,0L13,7.9a.583.583,0,1,0-.825-.825l-2.5,2.5V.583A.583.583,0,1,0,8.5.583V9.577L6,7.072a.583.583,0,1,0-.825.825Z" transform="translate(-2.083)" fill="#fff"/>
</svg>
