<svg xmlns="http://www.w3.org/2000/svg" width="20" height="18" viewBox="0 0 20 18">
  <path id="fi-rr-envelope" d="M15.833,1H4.167A4.134,4.134,0,0,0,0,5.091v9.818A4.134,4.134,0,0,0,4.167,19H15.833A4.134,4.134,0,0,0,20,14.909V5.091A4.134,4.134,0,0,0,15.833,1ZM4.167,2.636H15.833A2.5,2.5,0,0,1,18.15,4.18l-6.382,6.266a2.539,2.539,0,0,1-3.537,0L1.85,4.18A2.5,2.5,0,0,1,4.167,2.636ZM15.833,17.364H4.167a2.478,2.478,0,0,1-2.5-2.455V6.318L7.053,11.6a4.227,4.227,0,0,0,5.893,0l5.387-5.285v8.591A2.478,2.478,0,0,1,15.833,17.364Z" transform="translate(0 -1)" fill="#fff"/>
</svg>
