<svg xmlns="http://www.w3.org/2000/svg" width="131" height="131" viewBox="0 0 131 131">
  <g id="آیکون" transform="translate(-1058 -300)">
    <circle id="Ellipse_2184" data-name="Ellipse 2184" cx="65.5" cy="65.5" r="65.5" transform="translate(1058 300)" fill="#197b30"/>
    <path id="fi-rr-envelope" d="M40.375,1H10.625A10.638,10.638,0,0,0,0,11.625v25.5A10.638,10.638,0,0,0,10.625,47.75h29.75A10.638,10.638,0,0,0,51,37.125v-25.5A10.638,10.638,0,0,0,40.375,1ZM10.625,5.25h29.75a6.375,6.375,0,0,1,5.908,4.01L30.009,25.535a6.39,6.39,0,0,1-9.018,0L4.718,9.26a6.375,6.375,0,0,1,5.908-4.01ZM40.375,43.5H10.625A6.375,6.375,0,0,1,4.25,37.125V14.813L17.986,28.54a10.64,10.64,0,0,0,15.028,0L46.75,14.813V37.125A6.375,6.375,0,0,1,40.375,43.5Z" transform="translate(1098 341)" fill="#fff"/>
  </g>
</svg>
