<svg xmlns="http://www.w3.org/2000/svg" width="16" height="12.463" viewBox="0 0 16 12.463">
  <g id="Group_1986" data-name="Group 1986" transform="translate(-551 -462.334)">
    <g id="fi-rr-eye" transform="translate(551 462.334)">
      <path id="Path_19636" data-name="Path 19636" d="M15.507,7.166A8.825,8.825,0,0,0,8,2.655,8.825,8.825,0,0,0,.484,7.166a3.275,3.275,0,0,0,0,3.442A8.825,8.825,0,0,0,8,15.118a8.825,8.825,0,0,0,7.511-4.511A3.275,3.275,0,0,0,15.507,7.166ZM14.371,9.91A7.539,7.539,0,0,1,8,13.785,7.539,7.539,0,0,1,1.621,9.91a1.947,1.947,0,0,1,0-2.046A7.539,7.539,0,0,1,8,3.989a7.534,7.534,0,0,1,6.375,3.875A1.947,1.947,0,0,1,14.371,9.91Z" transform="translate(0.004 -2.655)"/>
      <path id="Path_19637" data-name="Path 19637" d="M10.332,7a3.334,3.334,0,1,0,3.332,3.334A3.333,3.333,0,0,0,10.332,7Zm0,5.335a2,2,0,1,1,2-2A2,2,0,0,1,10.332,12.335Z" transform="translate(-2.332 -4.103)"/>
    </g>
  </g>
</svg>
