<svg xmlns="http://www.w3.org/2000/svg" width="20" height="20" viewBox="0 0 20 20">
  <path id="fi-rr-film" d="M15.833,0H4.167A4.172,4.172,0,0,0,0,4.167V15.833A4.172,4.172,0,0,0,4.167,20H15.833A4.172,4.172,0,0,0,20,15.833V4.167A4.172,4.172,0,0,0,15.833,0Zm.833,9.167h1.667v1.667H16.667Zm0-1.667V5.833h1.667V7.5ZM15,9.167H5v-7.5H15ZM3.333,10.833H1.667V9.167H3.333Zm0-3.333H1.667V5.833H3.333Zm-1.667,5H3.333v1.667H1.667ZM5,10.833H15v7.5H5ZM16.667,12.5h1.667v1.667H16.667Zm1.667-8.333H16.667V1.82a2.5,2.5,0,0,1,1.667,2.347Zm-15-2.347V4.167H1.667A2.5,2.5,0,0,1,3.333,1.82ZM1.667,15.833H3.333V18.18a2.5,2.5,0,0,1-1.667-2.347Zm15,2.347V15.833h1.667A2.5,2.5,0,0,1,16.667,18.18Z" fill="#197b30"/>
</svg>
