<svg xmlns="http://www.w3.org/2000/svg" width="131" height="131" viewBox="0 0 131 131">
  <g id="آیکون" transform="translate(-1058 -300)">
    <circle id="Ellipse_2184" data-name="Ellipse 2184" cx="65.5" cy="65.5" r="65.5" transform="translate(1058 300)" fill="#197b30"/>
    <g id="fi-rr-marker" transform="translate(1101.055 340.002)">
      <path id="Path_19640" data-name="Path 19640" d="M16.453,6a8.5,8.5,0,1,0,8.453,8.5A8.476,8.476,0,0,0,16.453,6Zm0,12.749a4.25,4.25,0,1,1,4.226-4.25A4.238,4.238,0,0,1,16.453,18.749Z" transform="translate(6.74 6.751)" fill="#fff"/>
      <path id="Path_19641" data-name="Path 19641" d="M23.193,51a11.12,11.12,0,0,1-9.11-4.675C6.03,35.153,1.945,26.756,1.945,21.363a21.248,21.248,0,1,1,42.5,0c0,5.393-4.085,13.79-12.138,24.96A11.12,11.12,0,0,1,23.193,51Zm0-46.361A16.7,16.7,0,0,0,6.554,21.367c0,4.271,4,12.169,11.261,22.238a6.625,6.625,0,0,0,10.756,0c7.261-10.07,11.261-17.967,11.261-22.238A16.7,16.7,0,0,0,23.193,4.636Z" transform="translate(0)" fill="#fff"/>
    </g>
  </g>
</svg>
