<svg xmlns="http://www.w3.org/2000/svg" width="16.665" height="20" viewBox="0 0 16.665 20">
  <g id="fi-rr-marker" transform="translate(-1.945 0.002)">
    <path id="Path_16411" data-name="Path 16411" d="M11.315,6A3.333,3.333,0,1,0,14.63,9.333,3.324,3.324,0,0,0,11.315,6Zm0,5a1.667,1.667,0,1,1,1.657-1.667A1.662,1.662,0,0,1,11.315,11Z" transform="translate(-1.037 -1.001)" fill="#fff"/>
    <path id="Path_16412" data-name="Path 16412" d="M10.278,20a4.361,4.361,0,0,1-3.573-1.833c-3.158-4.38-4.76-7.674-4.76-9.788a8.333,8.333,0,1,1,16.665,0c0,2.115-1.6,5.408-4.76,9.788A4.361,4.361,0,0,1,10.278,20Zm0-18.181A6.551,6.551,0,0,0,3.752,8.378c0,1.675,1.569,4.772,4.416,8.721a2.6,2.6,0,0,0,4.218,0C15.234,13.15,16.8,10.053,16.8,8.378a6.551,6.551,0,0,0-6.525-6.561Z" transform="translate(0)" fill="#fff"/>
  </g>
</svg>
