<svg xmlns="http://www.w3.org/2000/svg" width="76" height="76" viewBox="0 0 76 76">
  <g id="آیکون" transform="translate(-639 -196)">
    <rect id="Rectangle_1967" data-name="Rectangle 1967" width="76" height="76" rx="38" transform="translate(639 196)" fill="#f7f7f7"/>
    <g id="fi-rr-sign-in" transform="translate(659 216)">
      <path id="Path_19640" data-name="Path 19640" d="M10.5,33h-3A4.5,4.5,0,0,1,3,28.5V7.5A4.5,4.5,0,0,1,7.5,3h3a1.5,1.5,0,1,0,0-3h-3A7.509,7.509,0,0,0,0,7.5v21A7.509,7.509,0,0,0,7.5,36h3a1.5,1.5,0,0,0,0-3Z" fill="#197b30"/>
      <path id="Path_19641" data-name="Path 19641" d="M13.193,5.44l-6.88,6.879a4.511,4.511,0,0,0,0,6.363l6.879,6.879a1.5,1.5,0,1,0,2.121-2.121L8.876,17H32a1.5,1.5,0,0,0,0-3H8.875l6.44-6.44a1.5,1.5,0,1,0-2.121-2.121Z" transform="translate(2.5 2.5)" fill="#197b30"/>
    </g>
  </g>
</svg>
