<svg xmlns="http://www.w3.org/2000/svg" xmlns:xlink="http://www.w3.org/1999/xlink" width="20" height="40" viewBox="0 0 20 40">
  <defs>
    <clipPath id="clip-path">
      <rect id="Rectangle_10" data-name="Rectangle 10" width="20" height="40" transform="translate(1198 427)" fill="#fff"/>
    </clipPath>
  </defs>
  <g id="Mask_Group_1" data-name="Mask Group 1" transform="translate(-1198 -427)" clip-path="url(#clip-path)">
    <g id="Group_4" data-name="Group 4" transform="translate(1198 427)">
      <rect id="Rectangle_1" data-name="Rectangle 1" width="6.362" height="6.362" transform="translate(20 15.502) rotate(45)" fill="#fff"/>
      <rect id="Rectangle_2" data-name="Rectangle 2" width="6.362" height="6.362" transform="translate(16.819 16.819)" fill="#fff"/>
      <path id="Path_37" data-name="Path 37" d="M6.451,1118.015a8.666,8.666,0,0,1-.3-5.268,10.037,10.037,0,0,0-6.15,2.814,9.6,9.6,0,0,0,2.352,6.311,12.5,12.5,0,0,1,4.094-3.857Z" transform="translate(-0.006 -1103.845)" fill="#fff"/>
      <path id="Path_38" data-name="Path 38" d="M6.293,2746.787a8.664,8.664,0,0,1-3.934-3.516A10.037,10.037,0,0,0,0,2749.61a9.6,9.6,0,0,0,6.126,2.8,12.5,12.5,0,0,1,.167-5.622Z" transform="translate(0 -2721.326)" fill="#fff"/>
      <path id="Path_39" data-name="Path 39" d="M1118.015,4194.3a8.665,8.665,0,0,1-5.268.3,10.035,10.035,0,0,0,2.814,6.149,9.6,9.6,0,0,0,6.311-2.352,12.507,12.507,0,0,1-3.857-4.094Z" transform="translate(-1103.845 -4160.744)" fill="#fff"/>
      <path id="Path_40" data-name="Path 40" d="M2746.787,4213.368a8.669,8.669,0,0,1-3.516,3.935,10.037,10.037,0,0,0,6.338,2.358,9.6,9.6,0,0,0,2.8-6.125,12.51,12.51,0,0,1-5.622-.167Z" transform="translate(-2721.326 -4179.662)" fill="#fff"/>
      <path id="Path_41" data-name="Path 41" d="M4194.3,2750.48a8.666,8.666,0,0,1,.3,5.268,10.038,10.038,0,0,0,6.149-2.814,9.6,9.6,0,0,0-2.352-6.311,12.508,12.508,0,0,1-4.094,3.857Z" transform="translate(-4160.744 -2724.65)" fill="#fff"/>
      <path id="Path_42" data-name="Path 42" d="M4213.368,1120.105a8.671,8.671,0,0,1,3.935,3.516,10.037,10.037,0,0,0,2.358-6.338,9.6,9.6,0,0,0-6.125-2.8,12.51,12.51,0,0,1-.167,5.622Z" transform="translate(-4179.662 -1105.567)" fill="#fff"/>
      <path id="Path_43" data-name="Path 43" d="M2750.48,6.451a8.666,8.666,0,0,1,5.268-.3,10.04,10.04,0,0,0-2.814-6.15,9.6,9.6,0,0,0-6.311,2.352,12.5,12.5,0,0,1,3.857,4.094Z" transform="translate(-2724.65 -0.006)" fill="#fff"/>
      <path id="Path_44" data-name="Path 44" d="M1120.105,6.293a8.666,8.666,0,0,1,3.516-3.934A10.037,10.037,0,0,0,1117.283,0a9.6,9.6,0,0,0-2.8,6.126,12.5,12.5,0,0,1,5.622.167Z" transform="translate(-1105.567)" fill="#fff"/>
      <path id="Path_45" data-name="Path 45" d="M2126.5,368.81a3.543,3.543,0,0,1,1.089,1.66,3.951,3.951,0,0,1-.726,3.362l1.241,1.242a5.717,5.717,0,0,0,1.466-4.2,3.2,3.2,0,1,0-6.058-.739,5.873,5.873,0,0,0,.454,3.681,8.449,8.449,0,0,0,1.486,1.885,36.945,36.945,0,0,0,2.694,2.634l2.473-.034c-.913-1.007-1.678-1.771-2.222-2.3-.656-.632-1.29-1.286-1.939-1.925a4.8,4.8,0,0,1-.67-.717,3.652,3.652,0,0,1-.557-2.505A3.382,3.382,0,0,1,2126.5,368.81Z" transform="translate(-2106.407 -363.424)" fill="#fff"/>
      <path id="Path_46" data-name="Path 46" d="M965.411,957.626a3.543,3.543,0,0,1,1.943.4,3.95,3.95,0,0,1,1.865,2.89h1.756a5.716,5.716,0,0,0-1.931-4,5.978,5.978,0,0,0-5.408-.988,5.579,5.579,0,0,0,3.526,7.031,8.463,8.463,0,0,0,2.384.282,36.924,36.924,0,0,0,3.768-.042l1.725-1.773c-1.358-.066-2.439-.066-3.194-.052-.911.017-1.822,0-2.733.01a4.781,4.781,0,0,1-.981-.033,3.652,3.652,0,0,1-2.166-1.377A3.382,3.382,0,0,1,965.411,957.626Z" transform="translate(-955.68 -948.023)" fill="#fff"/>
      <path id="Path_47" data-name="Path 47" d="M368.81,1977.864a3.545,3.545,0,0,1,1.66-1.088,3.951,3.951,0,0,1,3.362.726l1.242-1.242a5.716,5.716,0,0,0-4.2-1.465,5.978,5.978,0,0,0-4.522,3.125,5.58,5.58,0,0,0,7.465,2.479,8.474,8.474,0,0,0,1.885-1.486,36.995,36.995,0,0,0,2.634-2.694q-.017-1.237-.034-2.473c-1.007.913-1.771,1.678-2.3,2.222-.632.656-1.286,1.29-1.925,1.939a4.789,4.789,0,0,1-.717.67,3.653,3.653,0,0,1-2.505.558A3.383,3.383,0,0,1,368.81,1977.864Z" transform="translate(-363.424 -1957.955)" fill="#fff"/>
      <path id="Path_48" data-name="Path 48" d="M957.626,2590a3.543,3.543,0,0,1,.4-1.943,3.951,3.951,0,0,1,2.89-1.864v-1.756a5.72,5.72,0,0,0-4,1.932,5.979,5.979,0,0,0-.988,5.408,5.58,5.58,0,0,0,7.031-3.526,8.459,8.459,0,0,0,.282-2.384,36.931,36.931,0,0,0-.042-3.768l-1.773-1.725c-.066,1.358-.066,2.439-.052,3.195.017.911,0,1.822.01,2.732a4.781,4.781,0,0,1-.033.981,3.652,3.652,0,0,1-1.377,2.166A3.381,3.381,0,0,1,957.626,2590Z" transform="translate(-948.023 -2559.728)" fill="#fff"/>
      <path id="Path_49" data-name="Path 49" d="M1977.864,3145.176a3.545,3.545,0,0,1-1.088-1.66,3.95,3.95,0,0,1,.726-3.362l-1.242-1.242a5.717,5.717,0,0,0-1.465,4.2,3.2,3.2,0,1,0,6.058.739,5.876,5.876,0,0,0-.454-3.682,8.475,8.475,0,0,0-1.486-1.885,37.026,37.026,0,0,0-2.694-2.634l-2.473.034c.913,1.007,1.678,1.771,2.222,2.3.656.632,1.29,1.286,1.939,1.925a4.784,4.784,0,0,1,.67.717,3.653,3.653,0,0,1,.558,2.505A3.383,3.383,0,0,1,1977.864,3145.176Z" transform="translate(-1957.955 -3110.562)" fill="#fff"/>
      <path id="Path_50" data-name="Path 50" d="M2590,3099.691a3.543,3.543,0,0,1-1.943-.4,3.951,3.951,0,0,1-1.864-2.891h-1.756a5.72,5.72,0,0,0,1.932,4,5.98,5.98,0,0,0,5.408.988,5.58,5.58,0,0,0-3.526-7.031,8.445,8.445,0,0,0-2.384-.282,36.923,36.923,0,0,0-3.768.042l-1.725,1.773c1.358.066,2.439.066,3.195.052.911-.017,1.822,0,2.732-.01a4.764,4.764,0,0,1,.981.034,3.651,3.651,0,0,1,2.166,1.377A3.381,3.381,0,0,1,2590,3099.691Z" transform="translate(-2559.728 -3069.293)" fill="#fff"/>
      <path id="Path_51" data-name="Path 51" d="M3145.176,2126.5a3.543,3.543,0,0,1-1.66,1.089,3.951,3.951,0,0,1-3.362-.726l-1.242,1.241a5.718,5.718,0,0,0,4.2,1.466,3.2,3.2,0,1,0,.739-6.058,5.873,5.873,0,0,0-3.682.454,8.449,8.449,0,0,0-1.885,1.486,36.976,36.976,0,0,0-2.634,2.694q.017,1.236.034,2.473c1.007-.913,1.771-1.678,2.3-2.222.632-.656,1.286-1.29,1.925-1.939a4.792,4.792,0,0,1,.717-.67,3.652,3.652,0,0,1,2.505-.557A3.382,3.382,0,0,1,3145.176,2126.5Z" transform="translate(-3110.562 -2106.407)" fill="#fff"/>
      <path id="Path_52" data-name="Path 52" d="M3099.691,965.411a3.543,3.543,0,0,1-.4,1.943,3.95,3.95,0,0,1-2.891,1.865v1.756a5.717,5.717,0,0,0,4-1.931,5.98,5.98,0,0,0,.988-5.408,5.579,5.579,0,0,0-7.031,3.526,8.449,8.449,0,0,0-.282,2.384,36.916,36.916,0,0,0,.042,3.768l1.773,1.725c.066-1.358.066-2.439.052-3.194-.017-.911,0-1.822-.01-2.733a4.764,4.764,0,0,1,.034-.981,3.651,3.651,0,0,1,1.377-2.166A3.383,3.383,0,0,1,3099.691,965.411Z" transform="translate(-3069.293 -955.68)" fill="#fff"/>
    </g>
  </g>
</svg>
