<svg xmlns="http://www.w3.org/2000/svg" width="300" height="300" viewBox="0 0 300 300">
  <g id="Group_443" data-name="Group 443" opacity="0.05">
    <rect id="Rectangle_1" data-name="Rectangle 1" width="47.713" height="47.713" transform="translate(150 116.262) rotate(45)" fill="#fff"/>
    <rect id="Rectangle_2" data-name="Rectangle 2" width="47.713" height="47.713" transform="translate(126.144 126.144)" fill="#fff"/>
    <path id="Path_37" data-name="Path 37" d="M48.348,1152.255a64.988,64.988,0,0,1-2.22-39.508,75.272,75.272,0,0,0-46.122,21.1,72.006,72.006,0,0,0,17.637,47.335,93.734,93.734,0,0,1,30.7-28.929Z" transform="translate(-0.005 -1045.982)" fill="#fff"/>
    <path id="Path_38" data-name="Path 38" d="M47.2,2769.64a64.994,64.994,0,0,1-29.507-26.367A75.277,75.277,0,0,0,0,2790.806a72,72,0,0,0,45.942,21A93.731,93.731,0,0,1,47.2,2769.64Z" transform="translate(0 -2578.677)" fill="#fff"/>
    <path id="Path_39" data-name="Path 39" d="M1152.255,4194.3a65,65,0,0,1-39.508,2.22,75.261,75.261,0,0,0,21.1,46.12A72,72,0,0,0,1181.185,4225a93.716,93.716,0,0,1-28.929-30.7Z" transform="translate(-1045.982 -3942.638)" fill="#fff"/>
    <path id="Path_40" data-name="Path 40" d="M2769.64,4213.368a65.009,65.009,0,0,1-26.367,29.507,75.264,75.264,0,0,0,47.533,17.69,72,72,0,0,0,21-45.942,93.8,93.8,0,0,1-42.166-1.255Z" transform="translate(-2578.677 -3960.565)" fill="#fff"/>
    <path id="Path_41" data-name="Path 41" d="M4194.3,2775.553a65.006,65.006,0,0,1,2.22,39.51,75.278,75.278,0,0,0,46.12-21.1A71.992,71.992,0,0,0,4225,2746.623a93.765,93.765,0,0,1-30.7,28.93Z" transform="translate(-3942.638 -2581.826)" fill="#fff"/>
    <path id="Path_42" data-name="Path 42" d="M4213.368,1156.65a65.008,65.008,0,0,1,29.507,26.368,75.268,75.268,0,0,0,17.69-47.535,72.013,72.013,0,0,0-45.942-21,93.8,93.8,0,0,1-1.255,42.167Z" transform="translate(-3960.565 -1047.614)" fill="#fff"/>
    <path id="Path_43" data-name="Path 43" d="M2775.553,48.348a64.991,64.991,0,0,1,39.51-2.22,75.289,75.289,0,0,0-21.1-46.122,72,72,0,0,0-47.335,17.637,93.783,93.783,0,0,1,28.93,30.7Z" transform="translate(-2581.826 -0.005)" fill="#fff"/>
    <path id="Path_44" data-name="Path 44" d="M1156.65,47.2a64.994,64.994,0,0,1,26.368-29.507A75.282,75.282,0,0,0,1135.482,0a72.01,72.01,0,0,0-21,45.942A93.734,93.734,0,0,1,1156.65,47.2Z" transform="translate(-1047.614)" fill="#fff"/>
    <path id="Path_45" data-name="Path 45" d="M2146.669,384.771a26.558,26.558,0,0,1,8.162,12.451c3.835,13-4.459,23.962-5.442,25.217q4.658,4.656,9.313,9.312c1.868-2.05,12.444-14.045,10.991-31.477-1.881-22.592-22.211-33.3-23.442-33.918-2.4,1.281-17.912,9.9-21.993,28.373a44.041,44.041,0,0,0,3.406,27.611c.8,1.618,2.515,4.786,11.147,14.138a276.668,276.668,0,0,0,20.2,19.757l18.549-.256c-6.848-7.552-12.586-13.286-16.666-17.218-4.919-4.741-9.675-9.648-14.544-14.439-3.4-3.348-4.055-3.968-5.026-5.38-5.892-8.567-4.269-18.312-4.181-18.79A25.37,25.37,0,0,1,2146.669,384.771Z" transform="translate(-1995.989 -344.374)" fill="#fff"/>
    <path id="Path_46" data-name="Path 46" d="M978.563,970.347a26.574,26.574,0,0,1,14.576,3.033c11.9,6.477,13.79,20.1,13.983,21.678h13.17c-.129-2.77-1.132-18.73-14.486-30.031-17.305-14.644-39.251-7.837-40.561-7.407-.79,2.6-5.667,19.664,4.511,35.615a44.052,44.052,0,0,0,21.932,17.115c1.712.576,5.164,1.6,17.88,2.115a277.02,277.02,0,0,0,28.258-.317l12.935-13.3c-10.183-.5-18.293-.5-23.959-.391-6.83.126-13.663.019-20.494.074-4.773.039-5.673.061-7.358-.251-10.223-1.892-15.967-9.93-16.244-10.33A25.369,25.369,0,0,1,978.563,970.347Z" transform="translate(-905.584 -898.328)" fill="#fff"/>
    <path id="Path_47" data-name="Path 47" d="M384.771,2004.64a26.587,26.587,0,0,1,12.451-8.162c13-3.835,23.962,4.461,25.217,5.442l9.312-9.313c-2.05-1.868-14.045-12.444-31.477-10.991-22.592,1.881-33.3,22.212-33.918,23.443,1.281,2.4,9.9,17.911,28.373,21.994a44.058,44.058,0,0,0,27.611-3.407c1.618-.8,4.786-2.517,14.138-11.147a276.789,276.789,0,0,0,19.757-20.205q-.128-9.275-.256-18.549c-7.552,6.849-13.286,12.585-17.218,16.665-4.741,4.92-9.648,9.676-14.439,14.544-3.348,3.4-3.968,4.055-5.38,5.025-8.567,5.891-18.312,4.269-18.79,4.183A25.368,25.368,0,0,1,384.771,2004.64Z" transform="translate(-344.374 -1855.32)" fill="#fff"/>
    <path id="Path_48" data-name="Path 48" d="M970.347,2652.569a26.577,26.577,0,0,1,3.033-14.575c6.477-11.9,20.1-13.789,21.678-13.982V2610.84c-2.77.13-18.73,1.134-30.031,14.487-14.644,17.306-7.837,39.252-7.407,40.56,2.6.791,19.664,5.666,35.615-4.51a44.057,44.057,0,0,0,17.115-21.933c.576-1.711,1.6-5.164,2.115-17.878a277.052,277.052,0,0,0-.317-28.26q-6.648-6.467-13.3-12.935c-.5,10.184-.5,18.294-.391,23.96.126,6.829.019,13.663.074,20.493.039,4.774.061,5.675-.251,7.359-1.892,10.222-9.93,15.967-10.33,16.242A25.347,25.347,0,0,1,970.347,2652.569Z" transform="translate(-898.328 -2425.55)" fill="#fff"/>
    <path id="Path_49" data-name="Path 49" d="M2004.64,3207.112a26.591,26.591,0,0,1-8.162-12.451c-3.835-13,4.461-23.963,5.442-25.217l-9.313-9.312c-1.868,2.051-12.444,14.045-10.991,31.477,1.881,22.594,22.212,33.3,23.443,33.919,2.4-1.28,17.911-9.9,21.994-28.373a44.055,44.055,0,0,0-3.407-27.61c-.8-1.619-2.517-4.787-11.147-14.141a277.114,277.114,0,0,0-20.205-19.756l-18.549.256c6.849,7.552,12.585,13.286,16.665,17.218,4.92,4.74,9.676,9.647,14.544,14.439,3.4,3.349,4.055,3.968,5.025,5.38,5.891,8.566,4.269,18.313,4.183,18.79A25.369,25.369,0,0,1,2004.64,3207.112Z" transform="translate(-1855.32 -2947.507)" fill="#fff"/>
    <path id="Path_50" data-name="Path 50" d="M2652.569,3136.385a26.59,26.59,0,0,1-14.575-3.032c-11.9-6.478-13.789-20.1-13.982-21.68H2610.84c.13,2.77,1.134,18.729,14.487,30.03,17.306,14.645,39.252,7.839,40.56,7.408.791-2.6,5.666-19.666-4.51-35.615a44.042,44.042,0,0,0-21.933-17.115c-1.711-.578-5.164-1.605-17.878-2.116a277.143,277.143,0,0,0-28.26.317q-6.467,6.647-12.935,13.3c10.184.5,18.294.5,23.96.39,6.829-.125,13.663-.02,20.493-.073,4.774-.038,5.675-.061,7.359.252,10.222,1.89,15.967,9.929,16.242,10.327A25.354,25.354,0,0,1,2652.569,3136.385Z" transform="translate(-2425.55 -2908.403)" fill="#fff"/>
    <path id="Path_51" data-name="Path 51" d="M3207.112,2146.669a26.562,26.562,0,0,1-12.451,8.162c-13,3.835-23.963-4.459-25.217-5.442q-4.657,4.658-9.312,9.313c2.051,1.868,14.045,12.444,31.477,10.991,22.594-1.881,33.3-22.211,33.919-23.442-1.28-2.4-9.9-17.912-28.373-21.993a44.039,44.039,0,0,0-27.61,3.406c-1.619.8-4.787,2.515-14.141,11.147a276.993,276.993,0,0,0-19.756,20.2q.129,9.275.256,18.549c7.552-6.848,13.286-12.586,17.218-16.666,4.74-4.919,9.647-9.675,14.439-14.544,3.349-3.4,3.968-4.055,5.38-5.026,8.566-5.892,18.313-4.269,18.79-4.181A25.371,25.371,0,0,1,3207.112,2146.669Z" transform="translate(-2947.507 -1995.989)" fill="#fff"/>
    <path id="Path_52" data-name="Path 52" d="M3136.385,978.563a26.587,26.587,0,0,1-3.032,14.576c-6.478,11.9-20.1,13.79-21.68,13.983v13.17c2.77-.129,18.729-1.132,30.03-14.486,14.645-17.305,7.839-39.251,7.408-40.561-2.6-.79-19.666-5.667-35.615,4.511a44.037,44.037,0,0,0-17.115,21.932c-.578,1.712-1.605,5.164-2.116,17.88a277.111,277.111,0,0,0,.317,28.258l13.3,12.935c.5-10.183.5-18.293.39-23.959-.125-6.83-.02-13.663-.073-20.494-.038-4.773-.061-5.673.252-7.358,1.89-10.223,9.929-15.967,10.327-16.244A25.376,25.376,0,0,1,3136.385,978.563Z" transform="translate(-2908.403 -905.584)" fill="#fff"/>
  </g>
</svg>
