<svg xmlns="http://www.w3.org/2000/svg" xmlns:xlink="http://www.w3.org/1999/xlink" width="20" height="40" viewBox="0 0 20 40">
  <defs>
    <clipPath id="clip-path">
      <rect id="Rectangle_347" data-name="Rectangle 347" width="20" height="40" transform="translate(1198 427)" fill="#197b30"/>
    </clipPath>
  </defs>
  <g id="Mask_Group_4" data-name="Mask Group 4" transform="translate(-1198 -427)" clip-path="url(#clip-path)">
    <g id="Group_8" data-name="Group 8" transform="translate(1198 427)">
      <rect id="Rectangle_345" data-name="Rectangle 345" width="6.362" height="6.362" transform="translate(20 15.502) rotate(45)" fill="#197b30"/>
      <rect id="Rectangle_346" data-name="Rectangle 346" width="6.362" height="6.362" transform="translate(16.819 16.819)" fill="#197b30"/>
      <path id="Path_16362" data-name="Path 16362" d="M6.451,1118.015a8.666,8.666,0,0,1-.3-5.268,10.039,10.039,0,0,0-6.15,2.814,9.6,9.6,0,0,0,2.352,6.311,12.5,12.5,0,0,1,4.094-3.857Z" transform="translate(-0.006 -1103.845)" fill="#197b30"/>
      <path id="Path_16363" data-name="Path 16363" d="M6.293,2746.788a8.664,8.664,0,0,1-3.934-3.516A10.036,10.036,0,0,0,0,2749.61a9.6,9.6,0,0,0,6.126,2.8,12.5,12.5,0,0,1,.167-5.622Z" transform="translate(0 -2721.326)" fill="#197b30"/>
      <path id="Path_16364" data-name="Path 16364" d="M1118.015,4194.3a8.66,8.66,0,0,1-5.268.3,10.037,10.037,0,0,0,2.814,6.15,9.61,9.61,0,0,0,6.311-2.352,12.507,12.507,0,0,1-3.857-4.094Z" transform="translate(-1103.845 -4160.744)" fill="#197b30"/>
      <path id="Path_16365" data-name="Path 16365" d="M2746.788,4213.368a8.667,8.667,0,0,1-3.516,3.935,10.039,10.039,0,0,0,6.338,2.358,9.605,9.605,0,0,0,2.8-6.125,12.519,12.519,0,0,1-5.622-.168Z" transform="translate(-2721.326 -4179.662)" fill="#197b30"/>
      <path id="Path_16366" data-name="Path 16366" d="M4194.3,2750.48a8.661,8.661,0,0,1,.3,5.268,10.039,10.039,0,0,0,6.15-2.814,9.607,9.607,0,0,0-2.352-6.311,12.508,12.508,0,0,1-4.094,3.857Z" transform="translate(-4160.744 -2724.65)" fill="#197b30"/>
      <path id="Path_16367" data-name="Path 16367" d="M4213.368,1120.105a8.669,8.669,0,0,1,3.935,3.516,10.04,10.04,0,0,0,2.358-6.338,9.6,9.6,0,0,0-6.125-2.8,12.519,12.519,0,0,1-.168,5.622Z" transform="translate(-4179.662 -1105.567)" fill="#197b30"/>
      <path id="Path_16368" data-name="Path 16368" d="M2750.48,6.451a8.666,8.666,0,0,1,5.268-.3,10.042,10.042,0,0,0-2.814-6.15,9.6,9.6,0,0,0-6.311,2.352,12.5,12.5,0,0,1,3.857,4.094Z" transform="translate(-2724.65 -0.006)" fill="#197b30"/>
      <path id="Path_16369" data-name="Path 16369" d="M1120.105,6.293a8.666,8.666,0,0,1,3.516-3.934A10.037,10.037,0,0,0,1117.283,0a9.6,9.6,0,0,0-2.8,6.126,12.5,12.5,0,0,1,5.622.167Z" transform="translate(-1105.567)" fill="#197b30"/>
      <path id="Path_16370" data-name="Path 16370" d="M2126.5,368.81a3.541,3.541,0,0,1,1.089,1.66,3.951,3.951,0,0,1-.726,3.362l1.241,1.242a5.717,5.717,0,0,0,1.466-4.2,5.978,5.978,0,0,0-3.126-4.522,5.58,5.58,0,0,0-2.478,7.464,8.43,8.43,0,0,0,1.486,1.885,36.934,36.934,0,0,0,2.694,2.634l2.473-.034c-.913-1.007-1.678-1.771-2.222-2.3-.656-.632-1.29-1.286-1.939-1.925a4.786,4.786,0,0,1-.671-.717,3.651,3.651,0,0,1-.557-2.505A3.381,3.381,0,0,1,2126.5,368.81Z" transform="translate(-2106.407 -363.424)" fill="#197b30"/>
      <path id="Path_16371" data-name="Path 16371" d="M965.411,957.626a3.542,3.542,0,0,1,1.943.4,3.95,3.95,0,0,1,1.865,2.89h1.756a5.716,5.716,0,0,0-1.931-4,5.978,5.978,0,0,0-5.408-.988,5.579,5.579,0,0,0,3.526,7.031,8.461,8.461,0,0,0,2.384.282,36.942,36.942,0,0,0,3.768-.042l1.725-1.773c-1.358-.066-2.439-.066-3.194-.052-.911.017-1.822,0-2.733.01a4.772,4.772,0,0,1-.981-.033,3.652,3.652,0,0,1-2.166-1.377A3.382,3.382,0,0,1,965.411,957.626Z" transform="translate(-955.68 -948.023)" fill="#197b30"/>
      <path id="Path_16372" data-name="Path 16372" d="M368.81,1977.864a3.545,3.545,0,0,1,1.66-1.088,3.951,3.951,0,0,1,3.362.726l1.242-1.242a5.716,5.716,0,0,0-4.2-1.465,5.979,5.979,0,0,0-4.522,3.125,5.58,5.58,0,0,0,7.464,2.479,8.455,8.455,0,0,0,1.885-1.486,37.034,37.034,0,0,0,2.634-2.694q-.017-1.237-.034-2.473c-1.007.913-1.771,1.678-2.3,2.222-.632.656-1.286,1.29-1.925,1.939a4.771,4.771,0,0,1-.717.67,3.651,3.651,0,0,1-2.505.558A3.383,3.383,0,0,1,368.81,1977.864Z" transform="translate(-363.424 -1957.955)" fill="#197b30"/>
      <path id="Path_16373" data-name="Path 16373" d="M957.626,2590a3.543,3.543,0,0,1,.4-1.943,3.95,3.95,0,0,1,2.89-1.864v-1.756a5.719,5.719,0,0,0-4,1.932,5.979,5.979,0,0,0-.988,5.408,5.58,5.58,0,0,0,7.031-3.526,8.457,8.457,0,0,0,.282-2.384,36.949,36.949,0,0,0-.042-3.768l-1.773-1.725c-.066,1.358-.066,2.439-.052,3.195.017.911,0,1.822.01,2.732a4.772,4.772,0,0,1-.033.981,3.652,3.652,0,0,1-1.377,2.166A3.381,3.381,0,0,1,957.626,2590Z" transform="translate(-948.023 -2559.728)" fill="#197b30"/>
      <path id="Path_16374" data-name="Path 16374" d="M1977.864,3145.176a3.547,3.547,0,0,1-1.088-1.66,3.95,3.95,0,0,1,.726-3.362l-1.242-1.242a5.717,5.717,0,0,0-1.465,4.2,3.2,3.2,0,1,0,6.058.74,5.876,5.876,0,0,0-.454-3.682,8.441,8.441,0,0,0-1.486-1.885,36.965,36.965,0,0,0-2.694-2.634l-2.473.034c.913,1.007,1.678,1.771,2.222,2.3.656.631,1.29,1.286,1.939,1.925a4.732,4.732,0,0,1,.67.717,3.651,3.651,0,0,1,.558,2.505A3.385,3.385,0,0,1,1977.864,3145.176Z" transform="translate(-1957.955 -3110.562)" fill="#197b30"/>
      <path id="Path_16375" data-name="Path 16375" d="M2590,3099.69a3.541,3.541,0,0,1-1.943-.4,3.949,3.949,0,0,1-1.864-2.891h-1.756a5.719,5.719,0,0,0,1.932,4,5.981,5.981,0,0,0,5.408.988,5.581,5.581,0,0,0-3.526-7.031,8.491,8.491,0,0,0-2.384-.282,37.066,37.066,0,0,0-3.768.042l-1.725,1.772c1.358.066,2.439.066,3.195.052.911-.017,1.822,0,2.732-.01a4.764,4.764,0,0,1,.981.034,3.651,3.651,0,0,1,2.166,1.377A3.381,3.381,0,0,1,2590,3099.69Z" transform="translate(-2559.728 -3069.293)" fill="#197b30"/>
      <path id="Path_16376" data-name="Path 16376" d="M3145.176,2126.5a3.544,3.544,0,0,1-1.66,1.089,3.951,3.951,0,0,1-3.362-.726l-1.242,1.241a5.718,5.718,0,0,0,4.2,1.466,3.2,3.2,0,1,0,.74-6.058,5.87,5.87,0,0,0-3.682.454,8.416,8.416,0,0,0-1.885,1.486,36.865,36.865,0,0,0-2.634,2.694q.018,1.236.034,2.473c1.007-.913,1.771-1.678,2.3-2.222.631-.656,1.286-1.29,1.925-1.939a4.747,4.747,0,0,1,.717-.671,3.651,3.651,0,0,1,2.505-.557A3.383,3.383,0,0,1,3145.176,2126.5Z" transform="translate(-3110.562 -2106.407)" fill="#197b30"/>
      <path id="Path_16377" data-name="Path 16377" d="M3099.69,965.411a3.541,3.541,0,0,1-.4,1.943,3.95,3.95,0,0,1-2.891,1.865v1.756a5.716,5.716,0,0,0,4-1.931,5.98,5.98,0,0,0,.988-5.408,5.581,5.581,0,0,0-7.031,3.526,8.495,8.495,0,0,0-.282,2.384,37.059,37.059,0,0,0,.042,3.768l1.772,1.725c.066-1.358.066-2.439.052-3.194-.017-.911,0-1.822-.01-2.733a4.764,4.764,0,0,1,.034-.981,3.651,3.651,0,0,1,1.377-2.166A3.383,3.383,0,0,1,3099.69,965.411Z" transform="translate(-3069.293 -955.68)" fill="#197b30"/>
    </g>
  </g>
</svg>
