<svg xmlns="http://www.w3.org/2000/svg" width="80" height="80" viewBox="0 0 80 80">
  <g id="Group_6" data-name="Group 6" transform="translate(-304.469 -1543)">
    <path id="Path_71" data-name="Path 71" d="M138,22.4a40,40,0,1,0,40,40,40.06,40.06,0,0,0-40-40Zm0,78.222A38.222,38.222,0,1,1,176.222,62.4,38.277,38.277,0,0,1,138,100.62Z" transform="translate(206.469 1520.602)" fill="#fff"/>
    <path id="Path_72" data-name="Path 72" d="M161.556,50.4a35.556,35.556,0,1,0,35.556,35.556A35.546,35.546,0,0,0,161.556,50.4ZM172.578,87.82l-12.889,8.622a2.8,2.8,0,0,1-4.356-2.311V77.6a2.794,2.794,0,0,1,4.267-2.4l12.889,7.822a2.866,2.866,0,0,1,.089,4.8Z" transform="translate(182.913 1497.046)" fill="#fff"/>
  </g>
</svg>
