<svg id="fi-rr-print" xmlns="http://www.w3.org/2000/svg" width="16" height="16" viewBox="0 0 16 16">
  <path id="Path_16358" data-name="Path 16358" d="M12.667,4V2.667A2.667,2.667,0,0,0,10,0H6A2.667,2.667,0,0,0,3.333,2.667V4A3.337,3.337,0,0,0,0,7.333v3.333A3.337,3.337,0,0,0,3.333,14a2,2,0,0,0,2,2h5.333a2,2,0,0,0,2-2A3.337,3.337,0,0,0,16,10.667V7.333A3.337,3.337,0,0,0,12.667,4Zm-8-1.333A1.333,1.333,0,0,1,6,1.333h4a1.333,1.333,0,0,1,1.333,1.333V4H4.667ZM11.333,14a.667.667,0,0,1-.667.667H5.333A.667.667,0,0,1,4.667,14V11.333a.667.667,0,0,1,.667-.667h5.333a.667.667,0,0,1,.667.667Zm3.333-3.333a2,2,0,0,1-2,2V11.333a2,2,0,0,0-2-2H5.333a2,2,0,0,0-2,2v1.333a2,2,0,0,1-2-2V7.333a2,2,0,0,1,2-2h9.333a2,2,0,0,1,2,2Z" fill="#197b30"/>
  <path id="Path_16359" data-name="Path 16359" d="M17,10H15.667a.667.667,0,1,0,0,1.333H17A.667.667,0,1,0,17,10Z" transform="translate(-5 -3.333)" fill="#197b30"/>
</svg>
