<svg id="fi-rr-print" xmlns="http://www.w3.org/2000/svg" width="20" height="20" viewBox="0 0 20 20">
  <path id="Path_16413" data-name="Path 16413" d="M15.833,5V3.333A3.333,3.333,0,0,0,12.5,0h-5A3.333,3.333,0,0,0,4.167,3.333V5A4.172,4.172,0,0,0,0,9.167v4.167A4.172,4.172,0,0,0,4.167,17.5a2.5,2.5,0,0,0,2.5,2.5h6.667a2.5,2.5,0,0,0,2.5-2.5A4.172,4.172,0,0,0,20,13.333V9.167A4.172,4.172,0,0,0,15.833,5Zm-10-1.667A1.667,1.667,0,0,1,7.5,1.667h5a1.667,1.667,0,0,1,1.667,1.667V5H5.833ZM14.167,17.5a.833.833,0,0,1-.833.833H6.667a.833.833,0,0,1-.833-.833V14.167a.833.833,0,0,1,.833-.833h6.667a.833.833,0,0,1,.833.833Zm4.167-4.167a2.5,2.5,0,0,1-2.5,2.5V14.167a2.5,2.5,0,0,0-2.5-2.5H6.667a2.5,2.5,0,0,0-2.5,2.5v1.667a2.5,2.5,0,0,1-2.5-2.5V9.167a2.5,2.5,0,0,1,2.5-2.5H15.833a2.5,2.5,0,0,1,2.5,2.5Z" fill="#fff"/>
  <path id="Path_16414" data-name="Path 16414" d="M17.5,10H15.833a.833.833,0,0,0,0,1.667H17.5A.833.833,0,0,0,17.5,10Z" transform="translate(-2.5 -1.667)" fill="#fff"/>
</svg>
