<svg xmlns="http://www.w3.org/2000/svg" width="15.999" height="16" viewBox="0 0 15.999 16">
  <path id="fi-rr-share" d="M12.864,9.777a3.1,3.1,0,0,0-2.556,1.349L5.974,9.167a3.052,3.052,0,0,0,0-2.325l4.328-1.969a3.108,3.108,0,1,0-.551-1.762,3.092,3.092,0,0,0,.053.524l-4.6,2.093a3.11,3.11,0,1,0-.01,4.551L9.81,12.364a3.161,3.161,0,0,0-.053.523,3.108,3.108,0,1,0,3.107-3.11Zm0-8.444a1.778,1.778,0,1,1-1.775,1.778,1.777,1.777,0,0,1,1.775-1.778ZM3.1,9.777A1.778,1.778,0,1,1,4.874,8,1.777,1.777,0,0,1,3.1,9.777Zm9.765,4.888a1.778,1.778,0,1,1,1.776-1.778,1.777,1.777,0,0,1-1.776,1.778Z" transform="translate(0.027 0.001)" fill="#197b30"/>
</svg>
