<svg xmlns="http://www.w3.org/2000/svg" width="76" height="76" viewBox="0 0 76 76">
  <g id="آیکون" transform="translate(-639 -196)">
    <rect id="Rectangle_1967" data-name="Rectangle 1967" width="76" height="76" rx="38" transform="translate(639 196)" fill="#f7f7f7"/>
    <path id="fi-rr-share" d="M28.979,22a6.98,6.98,0,0,0-5.752,3.036l-9.752-4.408a6.868,6.868,0,0,0,.007-5.232l9.739-4.431A6.993,6.993,0,1,0,21.983,7,6.957,6.957,0,0,0,22.1,8.18L11.749,12.89a7,7,0,1,0-.022,10.24l10.38,4.692A7.112,7.112,0,0,0,21.989,29a6.992,6.992,0,1,0,6.991-7Zm0-19a4,4,0,1,1-3.994,4,4,4,0,0,1,3.994-4ZM7.006,22A4,4,0,1,1,11,18a4,4,0,0,1-3.994,4ZM28.979,33a4,4,0,1,1,4-4,4,4,0,0,1-4,4Z" transform="translate(659.026 216.001)" fill="#197b30"/>
  </g>
</svg>
