<svg xmlns="http://www.w3.org/2000/svg" width="131" height="131" viewBox="0 0 131 131">
  <g id="آیکون" transform="translate(-1058 -300)">
    <circle id="Ellipse_2184" data-name="Ellipse 2184" cx="65.5" cy="65.5" r="65.5" transform="translate(1058 300)" fill="#197b30"/>
    <path id="Path_1454" data-name="Path 1454" d="M40.672,56.049a5.027,5.027,0,0,0-3.643-1.668,5.2,5.2,0,0,0-3.687,1.658l-3.406,3.391c-.28-.151-.561-.291-.83-.431-.388-.194-.755-.377-1.067-.57a37,37,0,0,1-8.872-8.073,21.806,21.806,0,0,1-2.91-4.585c.884-.807,1.7-1.647,2.5-2.454.3-.3.6-.614.905-.915a4.934,4.934,0,0,0,0-7.449L16.72,32.013c-.334-.334-.679-.678-1-1.023-.647-.667-1.326-1.356-2.027-2a5.106,5.106,0,0,0-3.611-1.582,5.284,5.284,0,0,0-3.665,1.582l-.022.022L2.728,32.7A7.87,7.87,0,0,0,.389,37.707a18.845,18.845,0,0,0,1.38,7.987,46.332,46.332,0,0,0,8.246,13.735A50.717,50.717,0,0,0,26.907,72.636a26.347,26.347,0,0,0,9.486,2.8c.226.011.464.022.679.022a8.128,8.128,0,0,0,6.22-2.669c.011-.022.032-.032.043-.054a24.485,24.485,0,0,1,1.886-1.948c.464-.441.938-.9,1.4-1.389a5.366,5.366,0,0,0,1.628-3.724,5.17,5.17,0,0,0-1.66-3.692Zm3.859,11.334c-.011,0-.011.011,0,0-.42.452-.852.861-1.315,1.313a28.322,28.322,0,0,0-2.08,2.153,5.2,5.2,0,0,1-4.053,1.711c-.162,0-.334,0-.5-.011a23.4,23.4,0,0,1-8.408-2.519A47.874,47.874,0,0,1,12.268,57.588,43.686,43.686,0,0,1,4.507,44.682,15.349,15.349,0,0,1,3.3,37.944a4.938,4.938,0,0,1,1.488-3.2l3.676-3.67a2.452,2.452,0,0,1,1.638-.764,2.307,2.307,0,0,1,1.574.753l.032.032c.658.614,1.283,1.249,1.94,1.927.334.344.679.689,1.024,1.044l2.943,2.939a2.053,2.053,0,0,1,0,3.337c-.313.312-.614.624-.927.926-.905.926-1.768,1.787-2.706,2.626-.022.022-.043.032-.054.054a2.193,2.193,0,0,0-.561,2.443l.032.1a23.585,23.585,0,0,0,3.482,5.673l.011.011a39.545,39.545,0,0,0,9.572,8.7,14.727,14.727,0,0,0,1.326.721c.388.194.755.377,1.067.57.043.022.086.054.129.075a2.339,2.339,0,0,0,1.067.269,2.306,2.306,0,0,0,1.638-.743l3.687-3.681a2.44,2.44,0,0,1,1.628-.807,2.2,2.2,0,0,1,1.552.786l.022.022,5.94,5.931A2.126,2.126,0,0,1,44.531,67.383Z" transform="translate(1099.156 314.094)" fill="#fff" stroke="#fff" stroke-width="2"/>
  </g>
</svg>
