<svg xmlns="http://www.w3.org/2000/svg" width="20" height="20" viewBox="0 0 20 20">
  <path id="Path_16410" data-name="Path 16410" d="M37.339,30.5l-2.41-2.4a2.29,2.29,0,0,0-1.66-.751,2.368,2.368,0,0,0-1.675.745l-1.255,1.251-.18-.091a4.528,4.528,0,0,1-.411-.222,14.849,14.849,0,0,1-3.55-3.222,8.818,8.818,0,0,1-1.079-1.653c.318-.3.618-.6.9-.89.119-.121.245-.246.367-.367a2.233,2.233,0,0,0,0-3.37l-1.2-1.192c-.136-.135-.265-.266-.4-.406l-.006-.006c-.261-.268-.543-.553-.824-.813a2.347,2.347,0,0,0-1.652-.712,2.412,2.412,0,0,0-1.669.716l-1.509,1.5A3.385,3.385,0,0,0,18.107,20.8a7.687,7.687,0,0,0,.579,3.347,18.912,18.912,0,0,0,3.4,5.652h0a20.925,20.925,0,0,0,6.953,5.428l0,0a11.053,11.053,0,0,0,3.953,1.16h.018c.089,0,.18.008.277.008a3.505,3.505,0,0,0,2.709-1.16c.012-.014.028-.03.045-.052a9.158,9.158,0,0,1,.68-.7l.057-.054c.231-.22.413-.4.575-.569a2.417,2.417,0,0,0,.737-1.689A2.347,2.347,0,0,0,37.339,30.5ZM19.778,20.944h0a1.761,1.761,0,0,1,.539-1.148l1.492-1.487a.747.747,0,0,1,.5-.242.718.718,0,0,1,.476.244l.012.012c.227.21.445.432.676.666l.105.107.211.214c.069.069.138.139.207.21l1.2,1.2a.807.807,0,0,1,.275.5.807.807,0,0,1-.275.5c-.063.063-.126.125-.188.19s-.124.125-.186.188l-.085.085c-.338.341-.66.664-1.006.973l-.034.034a1.123,1.123,0,0,0-.286,1.241c0,.014.008.024.012.036l.008.02a9.8,9.8,0,0,0,1.458,2.367l0,0a16.4,16.4,0,0,0,3.953,3.588,4.427,4.427,0,0,0,.474.26c.028.014.059.028.087.044l0,0a4.527,4.527,0,0,1,.411.222l.036.02.036.02a1.2,1.2,0,0,0,.547.137,1.164,1.164,0,0,0,.842-.373l1.5-1.5a.755.755,0,0,1,.49-.254.691.691,0,0,1,.458.246l0,0,2.426,2.413a.628.628,0,0,1-.016,1.025l0,0c-.17.182-.35.355-.52.519l-.049.046a11.178,11.178,0,0,0-.812.843,1.854,1.854,0,0,1-1.464.611c-.057,0-.121,0-.186-.008a9.381,9.381,0,0,1-3.335-1,19.191,19.191,0,0,1-6.395-4.992,17.487,17.487,0,0,1-3.114-5.163,6.146,6.146,0,0,1-.482-2.635Z" transform="translate(-18.089 -16.4)" fill="#fff"/>
</svg>
