<svg xmlns="http://www.w3.org/2000/svg" width="20" height="20" viewBox="0 0 20 20">
  <g id="telegram" transform="translate(0.353)">
    <path id="Subtraction_2" data-name="Subtraction 2" d="M10,20A10,10,0,0,1,2.929,2.929,10,10,0,0,1,17.071,17.071,9.935,9.935,0,0,1,10,20Zm-.133-6.834h0l2.5,1.842a.843.843,0,0,0,.4.127c.251,0,.42-.186.5-.551l1.642-7.734a.767.767,0,0,0-.091-.669.445.445,0,0,0-.36-.162.716.716,0,0,0-.243.046L4.576,9.783c-.327.128-.512.294-.506.456,0,.137.148.261.393.338l2.468.77,5.726-3.6a.5.5,0,0,1,.264-.092c.061,0,.1.02.117.054s-.01.088-.07.14L8.334,12.029l-.177,2.544a.632.632,0,0,0,.5-.246l1.206-1.161Z" transform="translate(-0.353)" fill="#fff"/>
  </g>
</svg>
