<svg xmlns="http://www.w3.org/2000/svg" width="18.003" height="15" viewBox="0 0 18.003 15">
  <path id="fi-rr-thumbs-up" d="M17.08,5.745A3.792,3.792,0,0,0,14.25,4.49H11.258L11.51,3A2.21,2.21,0,0,0,9.959.532a2.3,2.3,0,0,0-2.74,1.13L5.784,4.49H3.75A3.7,3.7,0,0,0,0,8.135v3.645a3.7,3.7,0,0,0,3.75,3.645h9.975a3.735,3.735,0,0,0,3.713-3.135l.529-3.645A3.577,3.577,0,0,0,17.08,5.745ZM1.5,11.781V8.135A2.219,2.219,0,0,1,3.75,5.948h1.5v8.02H3.75A2.219,2.219,0,0,1,1.5,11.781Zm14.978-3.34-.53,3.645a2.239,2.239,0,0,1-2.224,1.882H6.75V5.754a.733.733,0,0,0,.172-.213L8.564,2.308a.8.8,0,0,1,.606-.4.815.815,0,0,1,.685.245.732.732,0,0,1,.175.612L9.634,5.1a.715.715,0,0,0,.169.589.759.759,0,0,0,.571.257H14.25a2.278,2.278,0,0,1,1.7.753,2.146,2.146,0,0,1,.529,1.74Z" transform="translate(0 -0.426)" fill="#fff"/>
</svg>
