<svg xmlns="http://www.w3.org/2000/svg" width="22.5" height="30" viewBox="0 0 22.5 30">
  <g id="fi-rr-user" transform="translate(-3)">
    <path id="Path_7531" data-name="Path 7531" d="M13.5,15A7.5,7.5,0,1,0,6,7.5,7.5,7.5,0,0,0,13.5,15Zm0-12.5a5,5,0,1,1-5,5,5,5,0,0,1,5-5Z" transform="translate(0.75)" fill="#197b30"/>
    <path id="Path_7532" data-name="Path 7532" d="M14.25,14A11.262,11.262,0,0,0,3,25.25a1.25,1.25,0,1,0,2.5,0,8.75,8.75,0,1,1,17.5,0,1.25,1.25,0,0,0,2.5,0A11.262,11.262,0,0,0,14.25,14Z" transform="translate(0 3.5)" fill="#197b30"/>
  </g>
</svg>
