<svg xmlns="http://www.w3.org/2000/svg" width="79.996" height="79.997" viewBox="0 0 79.996 79.997">
  <g id="user" transform="translate(-2.501 -2.5)">
    <path id="Subtraction_4" data-name="Subtraction 4" d="M7.691,64.86h0A41.094,41.094,0,0,1,0,40.865C0,18.332,17.945,0,40,0S80,18.332,80,40.865a41.088,41.088,0,0,1-7.69,23.993A14.65,14.65,0,0,0,71.05,64.1C63.763,60.281,52.46,55.725,40,55.725S16.236,60.282,8.949,64.1a14.378,14.378,0,0,0-1.256.755ZM40,7.43A21.815,21.815,0,1,0,61.817,29.246,21.841,21.841,0,0,0,40,7.43Z" transform="translate(2.499 2.5)" fill="#f7f7f7"/>
    <path id="Path_16189" data-name="Path 16189" d="M109.92,384.484A39.876,39.876,0,0,1,79.9,370.836c.209-.127.42-.264.627-.371,6.93-3.558,17.654-7.8,29.388-7.8s22.458,4.24,29.386,7.8c.208.107.419.245.629.373A39.877,39.877,0,0,1,109.92,384.484Z" transform="translate(-67.421 -301.987)" fill="#197b30"/>
    <circle id="Ellipse_2180" data-name="Ellipse 2180" cx="18.181" cy="18.181" r="18.181" transform="translate(24.318 13.409)" fill="#197b30"/>
  </g>
</svg>
