<svg xmlns="http://www.w3.org/2000/svg" width="20" height="20" viewBox="0 0 20 20">
  <path id="iconmonstr-whatsapp-1" d="M.057,20,1.47,14.864A9.908,9.908,0,0,1,10.1,0,9.914,9.914,0,1,1,5.336,18.622L.057,20Zm5.524-3.172A8.38,8.38,0,0,0,10.1,18.154,8.233,8.233,0,1,0,3.284,14.6l-.836,3.04,3.133-.818Zm9.534-4.553c-.062-.1-.228-.165-.477-.289s-1.472-.723-1.7-.806-.394-.124-.56.124-.643.806-.788.971-.291.186-.539.062a6.8,6.8,0,0,1-2-1.229A7.46,7.46,0,0,1,7.665,9.391c-.145-.248-.015-.382.109-.505s.249-.289.373-.434A1.623,1.623,0,0,0,8.4,8.039a.453.453,0,0,0-.021-.434c-.063-.123-.56-1.342-.767-1.838s-.408-.418-.56-.425l-.477-.008a.914.914,0,0,0-.663.31,2.773,2.773,0,0,0-.871,2.066,4.807,4.807,0,0,0,1.016,2.562A11.073,11.073,0,0,0,10.3,14.01a14.441,14.441,0,0,0,1.418.522,3.436,3.436,0,0,0,1.567.1,2.563,2.563,0,0,0,1.68-1.178,2.054,2.054,0,0,0,.145-1.178Z" transform="translate(-0.057)" fill="#fff"/>
</svg>
